{"accessors":[{"bufferView":0,"byteOffset":0,"componentType":5123,"count":10176,"type":"SCALAR"},{"bufferView":1,"byteOffset":0,"componentType":5126,"count":1945,"max":[0.00954261049628258,0.0227300003170967,0.0149477673694491],"min":[-0.01621490903199,-0.0227300003171,-0.00762624293566],"type":"VEC3"},{"bufferView":2,"byteOffset":0,"componentType":5126,"count":1945,"type":"VEC3"},{"bufferView":3,"byteOffset":0,"componentType":5126,"count":1945,"type":"VEC2"},{"bufferView":4,"byteOffset":0,"componentType":5123,"count":1945,"type":"VEC4"},{"bufferView":5,"byteOffset":0,"componentType":5126,"count":1945,"type":"VEC4"},{"bufferView":6,"byteOffset":0,"componentType":5123,"count":678,"type":"SCALAR"},{"bufferView":7,"byteOffset":0,"componentType":5126,"count":155,"max":[0.00417007505893707,0.00417007366195321,0.0334963649511337],"min":[-0.00417007179931,-0.00417007319629,-0.00834516249597],"type":"VEC3"},{"bufferView":8,"byteOffset":0,"componentType":5126,"count":155,"type":"VEC3"},{"bufferView":9,"byteOffset":0,"componentType":5126,"count":155,"type":"VEC2"},{"bufferView":10,"byteOffset":0,"componentType":5123,"count":155,"type":"VEC4"},{"bufferView":11,"byteOffset":0,"componentType":5126,"count":155,"type":"VEC4"},{"bufferView":12,"byteOffset":0,"componentType":5123,"count":678,"type":"SCALAR"},{"bufferView":13,"byteOffset":0,"componentType":5126,"count":155,"max":[0.00417007505893707,0.00417007459327579,0.0334963649511337],"min":[-0.00417007179931,-0.00417007459328,-0.00834516249597],"type":"VEC3"},{"bufferView":14,"byteOffset":0,"componentType":5126,"count":155,"type":"VEC3"},{"bufferView":15,"byteOffset":0,"componentType":5126,"count":155,"type":"VEC2"},{"bufferView":16,"byteOffset":0,"componentType":5123,"count":155,"type":"VEC4"},{"bufferView":17,"byteOffset":0,"componentType":5126,"count":155,"type":"VEC4"},{"bufferView":18,"byteOffset":0,"componentType":5126,"count":3,"type":"MAT4"},{"bufferView":19,"byteOffset":0,"componentType":5126,"count":3,"type":"MAT4"}],"asset":{"generator":"FBX2glTF v0.13.1","version":"2.0"},"bufferViews":[{"buffer":0,"byteLength":20352,"byteOffset":0,"target":34963},{"buffer":0,"byteLength":23340,"byteOffset":20352,"target":34962},{"buffer":0,"byteLength":23340,"byteOffset":43692,"target":34962},{"buffer":0,"byteLength":15560,"byteOffset":67032,"target":34962},{"buffer":0,"byteLength":15560,"byteOffset":82592,"target":34962},{"buffer":0,"byteLength":31120,"byteOffset":98152,"target":34962},{"buffer":0,"byteLength":1356,"byteOffset":129272,"target":34963},{"buffer":0,"byteLength":1860,"byteOffset":130628,"target":34962},{"buffer":0,"byteLength":1860,"byteOffset":132488,"target":34962},{"buffer":0,"byteLength":1240,"byteOffset":134348,"target":34962},{"buffer":0,"byteLength":1240,"byteOffset":135588,"target":34962},{"buffer":0,"byteLength":2480,"byteOffset":136828,"target":34962},{"buffer":0,"byteLength":1356,"byteOffset":139308,"target":34963},{"buffer":0,"byteLength":1860,"byteOffset":140664,"target":34962},{"buffer":0,"byteLength":1860,"byteOffset":142524,"target":34962},{"buffer":0,"byteLength":1240,"byteOffset":144384,"target":34962},{"buffer":0,"byteLength":1240,"byteOffset":145624,"target":34962},{"buffer":0,"byteLength":2480,"byteOffset":146864,"target":34962},{"buffer":0,"byteLength":192,"byteOffset":149344},{"buffer":0,"byteLength":192,"byteOffset":149536}],"buffers":[{"byteLength":149728,"uri":"Pull Mirror Toggles Final.bin"}],"images":[{"name":"Pull Mirror Toggles_BaseColor","uri":"Pull Mirror Toggles_BaseColor.png"}],"materials":[{"alphaMode":"OPAQUE","doubleSided":false,"extras":{"fromFBX":{"isTruePBR":false,"shadingModel":"Phong"}},"name":"Pull Mirror Toggle","pbrMetallicRoughness":{"baseColorFactor":[1,1,1,1],"baseColorTexture":{"index":0,"texCoord":0},"metallicFactor":0.400000005960464,"roughnessFactor":0.272165536880493}},{"alphaMode":"OPAQUE","doubleSided":false,"extras":{"fromFBX":{"isTruePBR":false,"shadingModel":"Phong"}},"name":"Pull Mirror Toggle 1","pbrMetallicRoughness":{"baseColorFactor":[1,1,1,1],"baseColorTexture":{"index":0,"texCoord":0},"metallicFactor":0.400000005960464,"roughnessFactor":0.272165536880493}}],"meshes":[{"name":"Pull Mirror Toggles","primitives":[{"attributes":{"JOINTS_0":4,"NORMAL":2,"POSITION":1,"TEXCOORD_0":3,"WEIGHTS_0":5},"indices":0,"material":1,"mode":4}]},{"name":"Pull Mirror Toggles.001","primitives":[{"attributes":{"JOINTS_0":10,"NORMAL":8,"POSITION":7,"TEXCOORD_0":9,"WEIGHTS_0":11},"indices":6,"material":1,"mode":4}]},{"name":"Pull Mirror Toggles.002","primitives":[{"attributes":{"JOINTS_0":16,"NORMAL":14,"POSITION":13,"TEXCOORD_0":15,"WEIGHTS_0":17},"indices":12,"material":1,"mode":4}]}],"nodes":[{"children":[1,6],"mesh":0,"name":"Pull Mirror Toggles","rotation":[-0.70710682868957,0,0,0.707106709480286],"scale":[100,100,100],"translation":[-0.14455066621304,-0.36607614159584,0.0000000112118776485204]},{"children":[2],"name":"Armature","rotation":[-0,-0,0,1],"scale":[1,1,1],"translation":[0.00939033459872007,-0.01094750128686,-0.00395913887769]},{"children":[3],"name":"Bone","rotation":[0.500000059604645,0.500000059604645,-0.49999997019768,-0.49999994039536],"scale":[1,1,1],"translation":[-0.01404204126447,-0.00023099780083,0.00825488287955523]},{"children":[4],"name":"Bone.001","rotation":[0.00000000000000000000002807544287,0.70710676908493,-0,0.707106828689575],"scale":[1,1,1],"translation":[0.00000000000156304960294285,0.00816819909960032,-0.00000000001744]},{"children":[5],"name":"Bone.002","rotation":[0.00000000000000000000000000027297,-0.00002133845737,0.00000000000000000000001279221893,1],"scale":[1,0.999999940395355,1],"translation":[0,0.0323701724410057,0]},{"name":"Bone.002_end","rotation":[-0,-0,-0,1],"scale":[1,1,1],"translation":[0,0.00866483151912689,0]},{"children":[7],"name":"Armature.001","rotation":[-0,-0,0,1],"scale":[1,1,1],"translation":[0.00939033459872007,0.011562168598175,-0.00395913887769]},{"children":[8],"name":"Bone 1","rotation":[0.500000059604645,0.500000059604645,-0.49999997019768,-0.49999994039536],"scale":[1,1,1],"translation":[-0.01404204126447,-0.00023099780083,0.00825488287955523]},{"children":[9],"name":"Bone.001 1","rotation":[0.00000000000000000000002807544287,0.70710676908493,-0,0.707106828689575],"scale":[1,1,1],"translation":[0.00000000000156304960294285,0.00816819909960032,-0.00000000001744]},{"children":[10],"name":"Bone.002 1","rotation":[0.00000000000000000000000000027297,-0.00002133845737,0.00000000000000000000001279221893,1],"scale":[1,0.999999940395355,1],"translation":[0,0.0323701724410057,0]},{"name":"Bone.002_end 1","rotation":[-0,-0,-0,1],"scale":[1,1,1],"translation":[0,0.00866483151912689,0]},{"mesh":1,"name":"Pull Mirror Toggles.001","rotation":[-0.70710682868957,0,0,0.707106709480286],"scale":[100,100,100],"skin":0,"translation":[-0.62179315090179,-4.07288408279419,1.12525880336761]},{"mesh":2,"name":"Pull Mirror Toggles.002","rotation":[-0.70710682868957,0,0,0.707106709480286],"scale":[100,100,100],"skin":1,"translation":[-0.62179315090179,-4.07288408279419,-1.12525880336761]}],"samplers":[{}],"scene":0,"scenes":[{"name":"Root Scene","nodes":[0,11,12]}],"skins":[{"inverseBindMatrices":18,"joints":[2,3,4],"skeleton":2},{"inverseBindMatrices":19,"joints":[7,8,9],"skeleton":7},{"joints":[2,3,4,5]},{"joints":[7,8,9,10]}],"textures":[{"name":"base_color_texture","sampler":0,"source":0}]}