{"accessors":[{"bufferView":0,"byteOffset":0,"componentType":5123,"count":678,"type":"SCALAR"},{"bufferView":1,"byteOffset":0,"componentType":5126,"count":155,"max":[0.00417007505893707,0.00417007366195321,0.0334963649511337],"min":[-0.00417007179931,-0.00417007319629,-0.00834516249597],"type":"VEC3"},{"bufferView":2,"byteOffset":0,"componentType":5126,"count":155,"type":"VEC3"},{"bufferView":3,"byteOffset":0,"componentType":5126,"count":155,"type":"VEC2"},{"bufferView":4,"byteOffset":0,"componentType":5123,"count":155,"type":"VEC4"},{"bufferView":5,"byteOffset":0,"componentType":5126,"count":155,"type":"VEC4"},{"bufferView":6,"byteOffset":0,"componentType":5123,"count":5376,"type":"SCALAR"},{"bufferView":7,"byteOffset":0,"componentType":5126,"count":1078,"max":[0.00954261049628258,0.0116164935752749,0.0149477673694491],"min":[-0.0162149053067,-0.01161649357527,-0.00762255350128],"type":"VEC3"},{"bufferView":8,"byteOffset":0,"componentType":5126,"count":1078,"type":"VEC3"},{"bufferView":9,"byteOffset":0,"componentType":5126,"count":1078,"type":"VEC2"},{"bufferView":10,"byteOffset":0,"componentType":5123,"count":1078,"type":"VEC4"},{"bufferView":11,"byteOffset":0,"componentType":5126,"count":1078,"type":"VEC4"},{"bufferView":12,"byteOffset":0,"componentType":5126,"count":3,"type":"MAT4"}],"asset":{"generator":"FBX2glTF v0.13.1","version":"2.0"},"bufferViews":[{"buffer":0,"byteLength":1356,"byteOffset":0,"target":34963},{"buffer":0,"byteLength":1860,"byteOffset":1356,"target":34962},{"buffer":0,"byteLength":1860,"byteOffset":3216,"target":34962},{"buffer":0,"byteLength":1240,"byteOffset":5076,"target":34962},{"buffer":0,"byteLength":1240,"byteOffset":6316,"target":34962},{"buffer":0,"byteLength":2480,"byteOffset":7556,"target":34962},{"buffer":0,"byteLength":10752,"byteOffset":10036,"target":34963},{"buffer":0,"byteLength":12936,"byteOffset":20788,"target":34962},{"buffer":0,"byteLength":12936,"byteOffset":33724,"target":34962},{"buffer":0,"byteLength":8624,"byteOffset":46660,"target":34962},{"buffer":0,"byteLength":8624,"byteOffset":55284,"target":34962},{"buffer":0,"byteLength":17248,"byteOffset":63908,"target":34962},{"buffer":0,"byteLength":192,"byteOffset":81156}],"buffers":[{"byteLength":81348,"uri":"Pull Toggle Solo.bin"}],"images":[{"name":"Pull Mirror Toggles_BaseColor","uri":"Pull Mirror Toggles_BaseColor.png"}],"materials":[{"alphaMode":"OPAQUE","doubleSided":false,"extras":{"fromFBX":{"isTruePBR":false,"shadingModel":"Phong"}},"name":"Pull Mirror Toggle","pbrMetallicRoughness":{"baseColorFactor":[1,1,1,1],"baseColorTexture":{"index":0,"texCoord":0},"metallicFactor":0.400000005960464,"roughnessFactor":0.272165536880493}},{"alphaMode":"OPAQUE","doubleSided":false,"extras":{"fromFBX":{"isTruePBR":false,"shadingModel":"Phong"}},"name":"Pull Mirror Toggle 1","pbrMetallicRoughness":{"baseColorFactor":[1,1,1,1],"baseColorTexture":{"index":0,"texCoord":0},"metallicFactor":0.400000005960464,"roughnessFactor":0.272165536880493}}],"meshes":[{"name":"Pull Mirror Toggles.004","primitives":[{"attributes":{"JOINTS_0":4,"NORMAL":2,"POSITION":1,"TEXCOORD_0":3,"WEIGHTS_0":5},"indices":0,"material":1,"mode":4}]},{"name":"Pull Mirror Toggles.006","primitives":[{"attributes":{"JOINTS_0":10,"NORMAL":8,"POSITION":7,"TEXCOORD_0":9,"WEIGHTS_0":11},"indices":6,"material":1,"mode":4}]}],"nodes":[{"mesh":0,"name":"Pull Mirror Toggles.004","rotation":[-0.70710682868957,0,0,0.707106709480286],"scale":[100,100,100],"skin":0,"translation":[-0.62179315090179,-4.07288408279419,1.12525880336761]},{"children":[2],"name":"Armature.002","rotation":[-0.70710682868957,0,0,0.707106709480286],"scale":[100,100,100],"translation":[0.79448276758194,-0.76199001073837,1.09475016593933]},{"children":[3],"name":"Bone","rotation":[0.500000059604645,0.500000059604645,-0.49999997019768,-0.49999994039536],"scale":[1,1,1],"translation":[-0.01404204126447,-0.00023099780083,0.00825488287955523]},{"children":[4],"name":"Bone.001","rotation":[0.00000000000000000000001871696191,0.70710676908493,-0,0.707106828689575],"scale":[1,1,1],"translation":[0.00000000000156305187976741,0.00816819909960032,-0.00000000001744]},{"children":[5],"name":"Bone.002","rotation":[-0,-0.00002133845737,-0,1],"scale":[1,0.999999940395355,1],"translation":[0,0.0323701724410057,0]},{"name":"Bone.002_end","rotation":[0.0000000000000000000000132348898,-0,-0,1],"scale":[1,1,1],"translation":[-0,0.00866483151912689,0.00000000000000000222044599961948]},{"mesh":1,"name":"Pull Mirror Toggles.006","rotation":[-0.70710682868957,0,0,0.707106709480286],"scale":[100,100,100],"translation":[-0.13893420994282,-0.36607614159584,1.11243271827698]}],"samplers":[{}],"scene":0,"scenes":[{"name":"Root Scene","nodes":[0,1,6]}],"skins":[{"inverseBindMatrices":12,"joints":[2,3,4],"skeleton":2},{"joints":[2,3,4,5]}],"textures":[{"name":"base_color_texture","sampler":0,"source":0}]}