{"accessors":[{"bufferView":0,"byteOffset":0,"componentType":5123,"count":7104,"type":"SCALAR"},{"bufferView":1,"byteOffset":0,"componentType":5126,"count":1970,"max":[0.0357121415436268,0.0336793065071106,0.138774245977402],"min":[-0.03099564649165,-0.03394477814436,-0.00232262117788],"type":"VEC3"},{"bufferView":2,"byteOffset":0,"componentType":5126,"count":1970,"type":"VEC3"},{"bufferView":3,"byteOffset":0,"componentType":5126,"count":1970,"type":"VEC4"},{"bufferView":4,"byteOffset":0,"componentType":5126,"count":1970,"type":"VEC2"}],"asset":{"generator":"FBX2glTF v0.13.1","version":"2.0"},"bufferViews":[{"buffer":0,"byteLength":14208,"byteOffset":0,"target":34963},{"buffer":0,"byteLength":23640,"byteOffset":14208,"target":34962},{"buffer":0,"byteLength":23640,"byteOffset":37848,"target":34962},{"buffer":0,"byteLength":31520,"byteOffset":61488,"target":34962},{"buffer":0,"byteLength":15760,"byteOffset":93008,"target":34962}],"buffers":[{"byteLength":108768,"uri":"Light House.bin"}],"materials":[{"alphaMode":"OPAQUE","doubleSided":false,"extras":{"fromFBX":{"isTruePBR":false,"shadingModel":"Lambert"}},"name":"DefaultMaterial","pbrMetallicRoughness":{"baseColorFactor":[0.5,0.5,0.5,1],"metallicFactor":0.200000002980232,"roughnessFactor":0.800000011920929}}],"meshes":[{"name":"Light House","primitives":[{"attributes":{"NORMAL":2,"POSITION":1,"TANGENT":3,"TEXCOORD_0":4},"indices":0,"material":0,"mode":4}]}],"nodes":[{"mesh":0,"name":"Light House","rotation":[-0.70710682868957,0,0,0.707106709480286],"scale":[395.116851806641,395.116851806641,395.116851806641],"translation":[0,0,0]}],"samplers":[{}],"scene":0,"scenes":[{"name":"Root Scene","nodes":[0]}]}