{
  "asset": {
    "generator": "Khronos glTF Blender I/O v3.3.32",
    "version": "2.0"
  },
  "scene": 0,
  "scenes": [
    {
      "name": "Scene",
      "nodes": [
        0
      ]
    }
  ],
  "nodes": [
    {
      "mesh": 0,
      "name": "cardboard_box_01",
      "translation": [
        0,
        0.17664676904678345,
        0
      ]
    }
  ],
  "materials": [
    {
      "doubleSided": true,
      "name": "cardboard_box_01",
      "normalTexture": {
        "index": 0
      },
      "pbrMetallicRoughness": {
        "baseColorTexture": {
          "index": 1
        },
        "metallicFactor": 0,
        "metallicRoughnessTexture": {
          "index": 2
        }
      }
    }
  ],
  "meshes": [
    {
      "name": "cardboard_box_01",
      "primitives": [
        {
          "attributes": {
            "POSITION": 0,
            "NORMAL": 1,
            "TEXCOORD_0": 2
          },
          "indices": 3,
          "material": 0
        }
      ]
    }
  ],
  "textures": [
    {
      "sampler": 0,
      "source": 0
    },
    {
      "sampler": 0,
      "source": 1
    },
    {
      "sampler": 0,
      "source": 2
    }
  ],
  "images": [
    {
      "mimeType": "image/jpeg",
      "name": "cardboard_box_01_nor_gl",
      "uri": "textures/cardboard_box_01_nor_gl_4k.jpg"
    },
    {
      "mimeType": "image/jpeg",
      "name": "cardboard_box_01_diff",
      "uri": "textures/cardboard_box_01_diff_4k.jpg"
    },
    {
      "mimeType": "image/jpeg",
      "name": "cardboard_box_01_rough",
      "uri": "textures/cardboard_box_01_arm_4k.jpg"
    }
  ],
  "accessors": [
    {
      "bufferView": 0,
      "componentType": 5126,
      "count": 8757,
      "max": [
        0.19451794028282166,
        0.1583968549966812,
        0.2907867133617401
      ],
      "min": [
        -0.19250565767288208,
        -0.18340270221233368,
        -0.22508370876312256
      ],
      "type": "VEC3"
    },
    {
      "bufferView": 1,
      "componentType": 5126,
      "count": 8757,
      "type": "VEC3"
    },
    {
      "bufferView": 2,
      "componentType": 5126,
      "count": 8757,
      "type": "VEC2"
    },
    {
      "bufferView": 3,
      "componentType": 5123,
      "count": 50856,
      "type": "SCALAR"
    }
  ],
  "bufferViews": [
    {
      "buffer": 0,
      "byteLength": 105084,
      "byteOffset": 0,
      "target": 34962
    },
    {
      "buffer": 0,
      "byteLength": 105084,
      "byteOffset": 105084,
      "target": 34962
    },
    {
      "buffer": 0,
      "byteLength": 70056,
      "byteOffset": 210168,
      "target": 34962
    },
    {
      "buffer": 0,
      "byteLength": 101712,
      "byteOffset": 280224,
      "target": 34963
    }
  ],
  "samplers": [
    {
      "magFilter": 9729,
      "minFilter": 9987
    }
  ],
  "buffers": [
    {
      "byteLength": 381936,
      "uri": "cardboard_box_01.bin"
    }
  ]
}