{"accessors":[{"bufferView":0,"byteOffset":0,"componentType":5123,"count":3840,"type":"SCALAR"},{"bufferView":1,"byteOffset":0,"componentType":5126,"count":824,"max":[0.00326731102541089,0.00214994209818542,0.00048640283057466],"min":[-0.00326731102541,-0.00214994186535,-0.00151211023331],"type":"VEC3"},{"bufferView":2,"byteOffset":0,"componentType":5126,"count":824,"type":"VEC3"},{"bufferView":3,"byteOffset":0,"componentType":5126,"count":824,"type":"VEC2"}],"asset":{"generator":"FBX2glTF v0.13.1","version":"2.0"},"bufferViews":[{"buffer":0,"byteLength":7680,"byteOffset":0,"target":34963},{"buffer":0,"byteLength":9888,"byteOffset":7680,"target":34962},{"buffer":0,"byteLength":9888,"byteOffset":17568,"target":34962},{"buffer":0,"byteLength":6592,"byteOffset":27456,"target":34962}],"buffers":[{"byteLength":34048,"uri":"Bubbly Photo Frame Final.bin"}],"materials":[{"alphaMode":"OPAQUE","doubleSided":false,"extras":{"fromFBX":{"isTruePBR":false,"shadingModel":"Lambert"}},"name":"DefaultMaterial","pbrMetallicRoughness":{"baseColorFactor":[0.5,0.5,0.5,1],"metallicFactor":0.200000002980232,"roughnessFactor":0.800000011920929}}],"meshes":[{"name":"Bubbly Photo Frame","primitives":[{"attributes":{"NORMAL":2,"POSITION":1,"TEXCOORD_0":3},"indices":0,"material":0,"mode":4}]}],"nodes":[{"mesh":0,"name":"Bubbly Photo Frame","rotation":[-0.70710682868957,0,0,0.707106709480286],"scale":[100,100,100],"translation":[0,0,0]}],"samplers":[{}],"scene":0,"scenes":[{"name":"Root Scene","nodes":[0]}]}