{"accessors":[{"bufferView":0,"byteOffset":0,"componentType":5123,"count":163200,"type":"SCALAR"},{"bufferView":1,"byteOffset":0,"componentType":5126,"count":28562,"max":[0.00317904888652265,0.00941264163702726,0.006747807841748],"min":[-0.01610029861331,-0.01249983999878,-0.01299426518381],"type":"VEC3"},{"bufferView":2,"byteOffset":0,"componentType":5126,"count":28562,"type":"VEC3"},{"bufferView":3,"byteOffset":0,"componentType":5126,"count":28562,"type":"VEC2"},{"bufferView":4,"byteOffset":0,"componentType":5126,"count":28562,"type":"VEC2"}],"asset":{"generator":"FBX2glTF v0.13.1","version":"2.0"},"bufferViews":[{"buffer":0,"byteLength":326400,"byteOffset":0,"target":34963},{"buffer":0,"byteLength":342744,"byteOffset":326400,"target":34962},{"buffer":0,"byteLength":342744,"byteOffset":669144,"target":34962},{"buffer":0,"byteLength":228496,"byteOffset":1011888,"target":34962},{"buffer":0,"byteLength":228496,"byteOffset":1240384,"target":34962}],"buffers":[{"byteLength":1468880,"uri":"Rock Pit Pillow Final.bin"}],"materials":[{"alphaMode":"OPAQUE","doubleSided":false,"extras":{"fromFBX":{"isTruePBR":false,"shadingModel":"Lambert"}},"name":"DefaultMaterial","pbrMetallicRoughness":{"baseColorFactor":[0.5,0.5,0.5,1],"metallicFactor":0.200000002980232,"roughnessFactor":0.800000011920929}}],"meshes":[{"name":"Rock Pit Pillows","primitives":[{"attributes":{"NORMAL":2,"POSITION":1,"TEXCOORD_0":3,"TEXCOORD_1":4},"indices":0,"material":0,"mode":4}]}],"nodes":[{"mesh":0,"name":"Rock Pit Pillows","rotation":[-0.52132833003998,-0.01812637597322,0.40147465467453,0.752798974514008],"scale":[125.820899963379,125.820899963379,125.820899963379],"translation":[6.93286371231079,2.4560227394104,8.57267284393311]}],"samplers":[{}],"scene":0,"scenes":[{"name":"Root Scene","nodes":[0]}]}