{"accessors":[{"bufferView":0,"byteOffset":0,"componentType":5123,"count":3960,"type":"SCALAR"},{"bufferView":1,"byteOffset":0,"componentType":5126,"count":1204,"max":[0.0903780609369278,0.0129760131239891,0.00284993462264538],"min":[-0.0050407028757,-0.01502012368292,-0.01314170565456],"type":"VEC3"},{"bufferView":2,"byteOffset":0,"componentType":5126,"count":1204,"type":"VEC3"},{"bufferView":3,"byteOffset":0,"componentType":5126,"count":1204,"type":"VEC4"},{"bufferView":4,"byteOffset":0,"componentType":5126,"count":1204,"type":"VEC2"}],"asset":{"generator":"FBX2glTF v0.13.1","version":"2.0"},"bufferViews":[{"buffer":0,"byteLength":7920,"byteOffset":0,"target":34963},{"buffer":0,"byteLength":14448,"byteOffset":7920,"target":34962},{"buffer":0,"byteLength":14448,"byteOffset":22368,"target":34962},{"buffer":0,"byteLength":19264,"byteOffset":36816,"target":34962},{"buffer":0,"byteLength":9632,"byteOffset":56080,"target":34962}],"buffers":[{"byteLength":65712,"uri":"Dock.bin"}],"materials":[{"alphaMode":"OPAQUE","doubleSided":false,"extras":{"fromFBX":{"isTruePBR":false,"shadingModel":"Lambert"}},"name":"DefaultMaterial","pbrMetallicRoughness":{"baseColorFactor":[0.5,0.5,0.5,1],"metallicFactor":0.200000002980232,"roughnessFactor":0.800000011920929}}],"meshes":[{"name":"Dock","primitives":[{"attributes":{"NORMAL":2,"POSITION":1,"TANGENT":3,"TEXCOORD_0":4},"indices":0,"material":0,"mode":4}]}],"nodes":[{"mesh":0,"name":"Dock","rotation":[-0.70710682868957,0,0,0.707106709480286],"scale":[89.5662536621094,89.5662536621094,89.5662536621094],"translation":[8.08913421630859,-0.23893468081951,-3.58097887039185]}],"samplers":[{}],"scene":0,"scenes":[{"name":"Root Scene","nodes":[0]}]}