{"accessors":[{"bufferView":0,"byteOffset":0,"componentType":5123,"count":2922,"type":"SCALAR"},{"bufferView":1,"byteOffset":0,"componentType":5126,"count":1340,"max":[0.00298742414452136,0.00260898633860052,0.00441722152754664],"min":[-0.00271332054399,-0.00261671235785,-0.00835521705449],"type":"VEC3"},{"bufferView":2,"byteOffset":0,"componentType":5126,"count":1340,"type":"VEC3"},{"bufferView":3,"byteOffset":0,"componentType":5126,"count":1340,"type":"VEC4"},{"bufferView":4,"byteOffset":0,"componentType":5126,"count":1340,"type":"VEC2"}],"asset":{"generator":"FBX2glTF v0.13.1","version":"2.0"},"bufferViews":[{"buffer":0,"byteLength":5844,"byteOffset":0,"target":34963},{"buffer":0,"byteLength":16080,"byteOffset":5844,"target":34962},{"buffer":0,"byteLength":16080,"byteOffset":21924,"target":34962},{"buffer":0,"byteLength":21440,"byteOffset":38004,"target":34962},{"buffer":0,"byteLength":10720,"byteOffset":59444,"target":34962}],"buffers":[{"byteLength":70164,"uri":"Mail Box.bin"}],"materials":[{"alphaMode":"OPAQUE","doubleSided":false,"extras":{"fromFBX":{"isTruePBR":false,"shadingModel":"Lambert"}},"name":"DefaultMaterial","pbrMetallicRoughness":{"baseColorFactor":[0.5,0.5,0.5,1],"metallicFactor":0.200000002980232,"roughnessFactor":0.800000011920929}}],"meshes":[{"name":"Mail Box","primitives":[{"attributes":{"NORMAL":2,"POSITION":1,"TANGENT":3,"TEXCOORD_0":4},"indices":0,"material":0,"mode":4}]}],"nodes":[{"mesh":0,"name":"Mail Box","rotation":[-0.70710682868957,0,0,0.707106709480286],"scale":[100,100,100],"translation":[15.7651596069336,0.67821478843689,-4.54894256591797]}],"samplers":[{}],"scene":0,"scenes":[{"name":"Root Scene","nodes":[0]}]}