{"accessors":[{"bufferView":0,"byteOffset":0,"componentType":5123,"count":5964,"type":"SCALAR"},{"bufferView":1,"byteOffset":0,"componentType":5126,"count":1570,"max":[0.011768089607358,0.011768089607358,0.010810143314302],"min":[-0.01176809053868,-0.01176809053868,-0.01317920908332],"type":"VEC3"},{"bufferView":2,"byteOffset":0,"componentType":5126,"count":1570,"type":"VEC3"},{"bufferView":3,"byteOffset":0,"componentType":5126,"count":1570,"type":"VEC4"},{"bufferView":4,"byteOffset":0,"componentType":5126,"count":1570,"type":"VEC2"}],"asset":{"generator":"FBX2glTF v0.13.1","version":"2.0"},"bufferViews":[{"buffer":0,"byteLength":11928,"byteOffset":0,"target":34963},{"buffer":0,"byteLength":18840,"byteOffset":11928,"target":34962},{"buffer":0,"byteLength":18840,"byteOffset":30768,"target":34962},{"buffer":0,"byteLength":25120,"byteOffset":49608,"target":34962},{"buffer":0,"byteLength":12560,"byteOffset":74728,"target":34962}],"buffers":[{"byteLength":87288,"uri":"Center Pole.bin"}],"materials":[{"alphaMode":"OPAQUE","doubleSided":false,"extras":{"fromFBX":{"isTruePBR":false,"shadingModel":"Lambert"}},"name":"DefaultMaterial","pbrMetallicRoughness":{"baseColorFactor":[0.5,0.5,0.5,1],"metallicFactor":0.200000002980232,"roughnessFactor":0.800000011920929}}],"meshes":[{"name":"Center Pole","primitives":[{"attributes":{"NORMAL":2,"POSITION":1,"TANGENT":3,"TEXCOORD_0":4},"indices":0,"material":0,"mode":4}]}],"nodes":[{"mesh":0,"name":"Center Pole","rotation":[-0.70710682868957,0,0,0.707106709480286],"scale":[100,100,100],"translation":[-1.50357782840729,1.31528735160828,-2.53392958641052]}],"samplers":[{}],"scene":0,"scenes":[{"name":"Root Scene","nodes":[0]}]}