{"accessors":[{"bufferView":0,"byteOffset":0,"componentType":5123,"count":162,"type":"SCALAR"},{"bufferView":1,"byteOffset":0,"componentType":5126,"count":134,"max":[0.0165819134563208,0.0165666807442904,0.0526819787919521],"min":[-0.01656665094197,-0.01658194512129,-0.00000315904617],"type":"VEC3"},{"bufferView":2,"byteOffset":0,"componentType":5126,"count":134,"type":"VEC3"},{"bufferView":3,"byteOffset":0,"componentType":5126,"count":134,"type":"VEC4"},{"bufferView":4,"byteOffset":0,"componentType":5126,"count":134,"type":"VEC2"}],"asset":{"generator":"FBX2glTF v0.13.1","version":"2.0"},"bufferViews":[{"buffer":0,"byteLength":324,"byteOffset":0,"target":34963},{"buffer":0,"byteLength":1608,"byteOffset":324,"target":34962},{"buffer":0,"byteLength":1608,"byteOffset":1932,"target":34962},{"buffer":0,"byteLength":2144,"byteOffset":3540,"target":34962},{"buffer":0,"byteLength":1072,"byteOffset":5684,"target":34962}],"buffers":[{"byteLength":6756,"uri":"IcoLamp.bin"}],"materials":[{"alphaMode":"OPAQUE","doubleSided":false,"extras":{"fromFBX":{"isTruePBR":false,"shadingModel":"Lambert"}},"name":"DefaultMaterial","pbrMetallicRoughness":{"baseColorFactor":[0.5,0.5,0.5,1],"metallicFactor":0.200000002980232,"roughnessFactor":0.800000011920929}}],"meshes":[{"name":"IcoLamp","primitives":[{"attributes":{"NORMAL":2,"POSITION":1,"TANGENT":3,"TEXCOORD_0":4},"indices":0,"material":0,"mode":4}]}],"nodes":[{"mesh":0,"name":"IcoLamp","rotation":[-0.70710682868957,0,0,0.707106709480286],"scale":[100,100,100],"translation":[0,0,0]}],"samplers":[{}],"scene":0,"scenes":[{"name":"Root Scene","nodes":[0]}]}