<?xml version="1.0" encoding="UTF-8" standalone="no"?><!DOCTYPE svg PUBLIC "-//W3C//DTD SVG 1.1//EN" "http://www.w3.org/Graphics/SVG/1.1/DTD/svg11.dtd"><svg width="100%" height="100%" viewBox="0 0 300 300" version="1.1" xmlns="http://www.w3.org/2000/svg" xmlns:xlink="http://www.w3.org/1999/xlink" xml:space="preserve" xmlns:serif="http://www.serif.com/" style="fill-rule:evenodd;clip-rule:evenodd;stroke-linejoin:round;stroke-miterlimit:2;"><path d="M150,14.485c-0,-2.426 1.462,-4.614 3.704,-5.543c2.242,-0.929 4.823,-0.415 6.539,1.301l129.514,129.514c1.716,1.716 2.23,4.297 1.301,6.539c-0.929,2.242 -3.117,3.704 -5.543,3.704l-128.515,0c0,0 -7,97.895 -7,135.515c0,2.426 -1.462,4.614 -3.704,5.543c-2.242,0.929 -4.823,0.415 -6.539,-1.301l-129.514,-129.514c-1.716,-1.716 -2.23,-4.297 -1.301,-6.539c0.929,-2.242 3.117,-3.704 5.543,-3.704l128.515,0c0,0 7,-97.895 7,-135.515Zm10.847,118.848l98.916,0l-93.687,-93.687c-1.148,30.369 -3.701,70.776 -5.229,93.687Zm-120.61,33.334l93.687,93.687c1.148,-30.369 3.701,-70.776 5.229,-93.687l-98.916,-0Z" style="fill:#735;"/></svg>