<?xml version="1.0" encoding="UTF-8" standalone="no"?><!DOCTYPE svg PUBLIC "-//W3C//DTD SVG 1.1//EN" "http://www.w3.org/Graphics/SVG/1.1/DTD/svg11.dtd"><svg width="300px" height="300px" version="1.1" xmlns="http://www.w3.org/2000/svg" xmlns:xlink="http://www.w3.org/1999/xlink" xml:space="preserve" xmlns:serif="http://www.serif.com/" style="fill-rule:evenodd;clip-rule:evenodd;stroke-linejoin:round;stroke-miterlimit:2;"><path d="M150,150L150,14.485C150,12.059 151.462,9.871 153.704,8.942C155.946,8.013 158.527,8.527 160.243,10.243L289.757,139.757C291.473,141.473 291.987,144.054 291.058,146.296C290.129,148.538 287.941,150 285.515,150L150,150ZM150,150L150,285.515C150,287.941 148.538,290.129 146.296,291.058C144.054,291.987 141.473,291.473 139.757,289.757L10.243,160.243C8.527,158.527 8.013,155.946 8.942,153.704C9.871,151.462 12.059,150 14.485,150L150,150Z"/></svg>