{"accessors":[{"bufferView":0,"byteOffset":0,"componentType":5123,"count":167448,"type":"SCALAR"},{"bufferView":1,"byteOffset":0,"componentType":5126,"count":29883,"max":[0.0139113245531917,0.0300256814807653,0.00744997663423419],"min":[-0.01209062896669,-0.02680231258273,-0.00695436773822],"type":"VEC3"},{"bufferView":2,"byteOffset":0,"componentType":5126,"count":29883,"type":"VEC3"},{"bufferView":3,"byteOffset":0,"componentType":5126,"count":29883,"type":"VEC4"},{"bufferView":4,"byteOffset":0,"componentType":5126,"count":29883,"type":"VEC2"}],"asset":{"generator":"FBX2glTF v0.13.1","version":"2.0"},"bufferViews":[{"buffer":0,"byteLength":334896,"byteOffset":0,"target":34963},{"buffer":0,"byteLength":358596,"byteOffset":334896,"target":34962},{"buffer":0,"byteLength":358596,"byteOffset":693492,"target":34962},{"buffer":0,"byteLength":478128,"byteOffset":1052088,"target":34962},{"buffer":0,"byteLength":239064,"byteOffset":1530216,"target":34962}],"buffers":[{"byteLength":1769280,"uri":"Comfy Boat.bin"}],"materials":[{"alphaMode":"OPAQUE","doubleSided":false,"extras":{"fromFBX":{"isTruePBR":false,"shadingModel":"Lambert"}},"name":"DefaultMaterial","pbrMetallicRoughness":{"baseColorFactor":[0.5,0.5,0.5,1],"metallicFactor":0.200000002980232,"roughnessFactor":0.800000011920929}}],"meshes":[{"name":"Boat","primitives":[{"attributes":{"NORMAL":2,"POSITION":1,"TANGENT":3,"TEXCOORD_0":4},"indices":0,"material":0,"mode":4}]}],"nodes":[{"mesh":0,"name":"Boat","rotation":[-0.70710682868957,0,0,0.707106709480286],"scale":[100,100,100],"translation":[17.5379161834717,-0.27389204502106,-3.37837052345276]}],"samplers":[{}],"scene":0,"scenes":[{"name":"Root Scene","nodes":[0]}]}