<?xml version="1.0" encoding="UTF-8" standalone="no"?><!DOCTYPE svg PUBLIC "-//W3C//DTD SVG 1.1//EN" "http://www.w3.org/Graphics/SVG/1.1/DTD/svg11.dtd"><svg width="1772px" height="1772px" version="1.1" xmlns="http://www.w3.org/2000/svg" xmlns:xlink="http://www.w3.org/1999/xlink" xml:space="preserve" xmlns:serif="http://www.serif.com/" style="fill-rule:evenodd;clip-rule:evenodd;stroke-linecap:round;stroke-linejoin:round;stroke-miterlimit:32;"><g id="Layer3"><path d="M1771.65,442.913c-0,-244.45 -198.463,-442.913 -442.914,-442.913l-885.827,0c-244.45,0 -442.913,198.463 -442.913,442.913l0,885.827c0,244.451 198.463,442.914 442.913,442.914l885.827,-0c244.451,-0 442.914,-198.463 442.914,-442.914l-0,-885.827Z" style="fill:#f8b;"/></g><g id="Layer2"><path d="M884.832,1543.07l-295.005,-185.744l-154,-349l18,-100l-46,-74.591l-0,-89.409l-120,-240l-25,-144l25,-104l91,-29l211,133l138,144l110,-18l96,-0l110,18l138,-144l211,-133l91,29l25,104l-25,144l-120,240l-0,89.409l-46,74.591l18,100l-154,349l-295.006,185.744l0.006,1.256l-1,-0.63l-1,0.63l0.005,-1.256Z" style="fill:#97c;stroke:#657;stroke-width:20.83px;"/><path d="M1205.83,603.327l114,112l-0,147.937l-68,80.063l-195,-0l-112,-80.063l-116,-0l-112,80.063l-195,-0l-68,-80.063l-0,-147.937l114,-112l638,-0Z" style="fill:#657;stroke:#657;stroke-width:20.83px;stroke-miterlimit:1.5;"/><path d="M793.473,1281.74l21.854,-82.41l46,-0l10,-52l31.5,-0l10,52l46,-0l21.854,82.41l-93.854,98l-93.354,-98Z" style="fill:#f8b;stroke:#657;stroke-width:20.83px;stroke-miterlimit:1.5;"/><path d="M902.827,1147.33l-31.5,-0l-65,-24l-0,-56l161.5,-0l-0,56l-65,24Z" style="fill:#657;stroke:#657;stroke-width:20.83px;stroke-miterlimit:1.5;"/><path d="M886.827,1543.33l295,-186l154,-349l-84,-65l-149,-0l-0,215l-216,221l-216,-219.426l-0,-215l-149,-0l-84,65l154,349l295,184.426Z" style="fill:none;stroke:#657;stroke-width:20.83px;stroke-miterlimit:1.5;"/><path d="M1178.83,603.327l-1,-75l48,-134l135,-101l77,-0l-0,235l-172,131.705l-54,-56.705l-33,-0Z" style="fill:#f8b;stroke:#657;stroke-width:20.83px;stroke-miterlimit:1.5;"/><path d="M596.827,603.327l1,-75l-48,-134l-135,-101l-77,-0l-0,235l172,131.705l54,-56.705l33,-0Z" style="fill:#f8b;stroke:#657;stroke-width:20.83px;stroke-miterlimit:1.5;"/></g></svg>