{"accessors":[{"bufferView":0,"byteOffset":0,"componentType":5123,"count":2088,"type":"SCALAR"},{"bufferView":1,"byteOffset":0,"componentType":5126,"count":826,"max":[0.00066153501393273,0.00834445562213659,0.0113116884604096],"min":[-0.00037551950663,-0.0075096427463,-0.00978066585958],"type":"VEC3"},{"bufferView":2,"byteOffset":0,"componentType":5126,"count":826,"type":"VEC3"},{"bufferView":3,"byteOffset":0,"componentType":5126,"count":826,"type":"VEC4"},{"bufferView":4,"byteOffset":0,"componentType":5126,"count":826,"type":"VEC2"}],"asset":{"generator":"FBX2glTF v0.13.1","version":"2.0"},"bufferViews":[{"buffer":0,"byteLength":4176,"byteOffset":0,"target":34963},{"buffer":0,"byteLength":9912,"byteOffset":4176,"target":34962},{"buffer":0,"byteLength":9912,"byteOffset":14088,"target":34962},{"buffer":0,"byteLength":13216,"byteOffset":24000,"target":34962},{"buffer":0,"byteLength":6608,"byteOffset":37216,"target":34962}],"buffers":[{"byteLength":43824,"uri":"Door.bin"}],"materials":[{"alphaMode":"OPAQUE","doubleSided":false,"extras":{"fromFBX":{"isTruePBR":false,"shadingModel":"Lambert"}},"name":"DefaultMaterial","pbrMetallicRoughness":{"baseColorFactor":[0.5,0.5,0.5,1],"metallicFactor":0.200000002980232,"roughnessFactor":0.800000011920929}}],"meshes":[{"name":"Cute Door","primitives":[{"attributes":{"NORMAL":2,"POSITION":1,"TANGENT":3,"TEXCOORD_0":4},"indices":0,"material":0,"mode":4}]}],"nodes":[{"mesh":0,"name":"Cute Door","rotation":[0.500000059604645,-0.49999997019768,-0.50000005960465,-0.49999997019768],"scale":[94.7670135498047,94.7670135498047,94.7670135498047],"translation":[3.36628985404968,0.97457492351532,-4.285719871521]}],"samplers":[{}],"scene":0,"scenes":[{"name":"Root Scene","nodes":[0]}]}