{"accessors":[{"bufferView":0,"byteOffset":0,"componentType":5123,"count":768,"type":"SCALAR"},{"bufferView":1,"byteOffset":0,"componentType":5126,"count":512,"max":[0.0100017320364714,0.0100017320364714,0.0131976343691349],"min":[-0.01000173203647,-0.01000173296779,-0.00095060403692],"type":"VEC3"},{"bufferView":2,"byteOffset":0,"componentType":5126,"count":512,"type":"VEC3"},{"bufferView":3,"byteOffset":0,"componentType":5126,"count":512,"type":"VEC4"},{"bufferView":4,"byteOffset":0,"componentType":5126,"count":512,"type":"VEC2"}],"asset":{"generator":"FBX2glTF v0.13.1","version":"2.0"},"bufferViews":[{"buffer":0,"byteLength":1536,"byteOffset":0,"target":34963},{"buffer":0,"byteLength":6144,"byteOffset":1536,"target":34962},{"buffer":0,"byteLength":6144,"byteOffset":7680,"target":34962},{"buffer":0,"byteLength":8192,"byteOffset":13824,"target":34962},{"buffer":0,"byteLength":4096,"byteOffset":22016,"target":34962}],"buffers":[{"byteLength":26112,"uri":"Water Paper Lantern.bin"}],"materials":[{"alphaMode":"OPAQUE","doubleSided":false,"extras":{"fromFBX":{"isTruePBR":false,"shadingModel":"Lambert"}},"name":"DefaultMaterial","pbrMetallicRoughness":{"baseColorFactor":[0.5,0.5,0.5,1],"metallicFactor":0.200000002980232,"roughnessFactor":0.800000011920929}}],"meshes":[{"name":"Water Lantern","primitives":[{"attributes":{"NORMAL":2,"POSITION":1,"TANGENT":3,"TEXCOORD_0":4},"indices":0,"material":0,"mode":4}]}],"nodes":[{"mesh":0,"name":"Water Lantern","rotation":[-0.70710682868957,0,0,0.707106709480286],"scale":[100,100,100],"translation":[0,0,0]}],"samplers":[{}],"scene":0,"scenes":[{"name":"Root Scene","nodes":[0]}]}