{"accessors":[{"bufferView":0,"byteOffset":0,"componentType":5123,"count":11163,"type":"SCALAR"},{"bufferView":1,"byteOffset":0,"componentType":5126,"count":4141,"max":[0.0127097880467772,0.00820787902921438,0.00102084339596331],"min":[-0.01270978804678,-0.00820787902921,-0.00766064133495],"type":"VEC3"},{"bufferView":2,"byteOffset":0,"componentType":5126,"count":4141,"type":"VEC3"},{"bufferView":3,"byteOffset":0,"componentType":5126,"count":4141,"type":"VEC4"},{"bufferView":4,"byteOffset":0,"componentType":5126,"count":4141,"type":"VEC2"},{"bufferView":5,"byteOffset":0,"componentType":5126,"count":4141,"type":"VEC2"}],"asset":{"generator":"FBX2glTF v0.13.1","version":"2.0"},"bufferViews":[{"buffer":0,"byteLength":22326,"byteOffset":0,"target":34963},{"buffer":0,"byteLength":49692,"byteOffset":22328,"target":34962},{"buffer":0,"byteLength":49692,"byteOffset":72020,"target":34962},{"buffer":0,"byteLength":66256,"byteOffset":121712,"target":34962},{"buffer":0,"byteLength":33128,"byteOffset":187968,"target":34962},{"buffer":0,"byteLength":33128,"byteOffset":221096,"target":34962}],"buffers":[{"byteLength":254224,"uri":"Candy Cove Custom Pool Table.bin"}],"materials":[{"alphaMode":"OPAQUE","doubleSided":false,"extras":{"fromFBX":{"isTruePBR":false,"shadingModel":"Lambert"}},"name":"DefaultMaterial","pbrMetallicRoughness":{"baseColorFactor":[0.5,0.5,0.5,1],"metallicFactor":0.200000002980232,"roughnessFactor":0.800000011920929}}],"meshes":[{"name":"Custom Pool Table","primitives":[{"attributes":{"NORMAL":2,"POSITION":1,"TANGENT":3,"TEXCOORD_0":4,"TEXCOORD_1":5},"indices":0,"material":0,"mode":4}]}],"nodes":[{"mesh":0,"name":"Custom Pool Table","rotation":[-0.70710682868957,0,0,0.707106709480286],"scale":[100,100,100],"translation":[0,-0.06487499922514,0]}],"samplers":[{}],"scene":0,"scenes":[{"name":"Root Scene","nodes":[0]}]}