{"accessors":[{"bufferView":0,"byteOffset":0,"componentType":5123,"count":10164,"type":"SCALAR"},{"bufferView":1,"byteOffset":0,"componentType":5126,"count":3234,"max":[0.147022649645805,0.223602265119553,0.00773758767172694],"min":[-0.02790206857026,0.166019335389137,-0.0006755059585],"type":"VEC3"},{"bufferView":2,"byteOffset":0,"componentType":5126,"count":3234,"type":"VEC3"},{"bufferView":3,"byteOffset":0,"componentType":5126,"count":3234,"type":"VEC4"},{"bufferView":4,"byteOffset":0,"componentType":5126,"count":3234,"type":"VEC2"}],"asset":{"generator":"FBX2glTF v0.13.1","version":"2.0"},"bufferViews":[{"buffer":0,"byteLength":20328,"byteOffset":0,"target":34963},{"buffer":0,"byteLength":38808,"byteOffset":20328,"target":34962},{"buffer":0,"byteLength":38808,"byteOffset":59136,"target":34962},{"buffer":0,"byteLength":51744,"byteOffset":97944,"target":34962},{"buffer":0,"byteLength":25872,"byteOffset":149688,"target":34962}],"buffers":[{"byteLength":175560,"uri":"Lil Bricks.bin"}],"materials":[{"alphaMode":"OPAQUE","doubleSided":false,"extras":{"fromFBX":{"isTruePBR":false,"shadingModel":"Lambert"}},"name":"DefaultMaterial","pbrMetallicRoughness":{"baseColorFactor":[0.5,0.5,0.5,1],"metallicFactor":0.200000002980232,"roughnessFactor":0.800000011920929}}],"meshes":[{"name":"Lil Bricks","primitives":[{"attributes":{"NORMAL":2,"POSITION":1,"TANGENT":3,"TEXCOORD_0":4},"indices":0,"material":0,"mode":4}]}],"nodes":[{"mesh":0,"name":"Lil Bricks","rotation":[0.500000059604645,-0.49999997019768,-0.50000005960465,-0.49999997019768],"scale":[100,100,100],"translation":[28.8645668029785,-0.87980002164841,6.43965482711792]}],"samplers":[{}],"scene":0,"scenes":[{"name":"Root Scene","nodes":[0]}]}