{"accessors":[{"bufferView":0,"byteOffset":0,"componentType":5123,"count":3978,"type":"SCALAR"},{"bufferView":1,"byteOffset":0,"componentType":5126,"count":1248,"max":[0.0182175543159246,0.0131874661892653,0.00610601576045156],"min":[-0.00104577001184,-0.01350889634341,-0.01091605611146],"type":"VEC3"},{"bufferView":2,"byteOffset":0,"componentType":5126,"count":1248,"type":"VEC3"},{"bufferView":3,"byteOffset":0,"componentType":5126,"count":1248,"type":"VEC4"},{"bufferView":4,"byteOffset":0,"componentType":5126,"count":1248,"type":"VEC2"}],"asset":{"generator":"FBX2glTF v0.13.1","version":"2.0"},"bufferViews":[{"buffer":0,"byteLength":7956,"byteOffset":0,"target":34963},{"buffer":0,"byteLength":14976,"byteOffset":7956,"target":34962},{"buffer":0,"byteLength":14976,"byteOffset":22932,"target":34962},{"buffer":0,"byteLength":19968,"byteOffset":37908,"target":34962},{"buffer":0,"byteLength":9984,"byteOffset":57876,"target":34962}],"buffers":[{"byteLength":67860,"uri":"Projector.bin"}],"materials":[{"alphaMode":"OPAQUE","doubleSided":false,"extras":{"fromFBX":{"isTruePBR":false,"shadingModel":"Lambert"}},"name":"DefaultMaterial","pbrMetallicRoughness":{"baseColorFactor":[0.5,0.5,0.5,1],"metallicFactor":0.200000002980232,"roughnessFactor":0.800000011920929}}],"meshes":[{"name":"Projector","primitives":[{"attributes":{"NORMAL":2,"POSITION":1,"TANGENT":3,"TEXCOORD_0":4},"indices":0,"material":0,"mode":4}]}],"nodes":[{"mesh":0,"name":"Projector","rotation":[-0.4741624891758,0.524566471576691,-0.52456641197205,0.474162429571152],"scale":[25.9558925628662,25.9558906555176,25.9558925628662],"translation":[5.5765552520752,1.95312237739563,8.75579071044922]}],"samplers":[{}],"scene":0,"scenes":[{"name":"Root Scene","nodes":[0]}]}