{"accessors":[{"bufferView":0,"byteOffset":0,"componentType":5123,"count":2532,"type":"SCALAR"},{"bufferView":1,"byteOffset":0,"componentType":5126,"count":1230,"max":[0.0549108162522316,0.0369434505701065,0.0611454769968987],"min":[-0.02158563025296,-0.02993796952069,-0.00173608725891],"type":"VEC3"},{"bufferView":2,"byteOffset":0,"componentType":5126,"count":1230,"type":"VEC3"},{"bufferView":3,"byteOffset":0,"componentType":5126,"count":1230,"type":"VEC2"},{"bufferView":4,"byteOffset":0,"componentType":5123,"count":768,"type":"SCALAR"},{"bufferView":5,"byteOffset":0,"componentType":5126,"count":304,"max":[0.0547775402665138,0.0365900360047817,0.0606269724667072],"min":[-0.02145908586681,-0.02949335984886,0.0224199909716845],"type":"VEC3"},{"bufferView":6,"byteOffset":0,"componentType":5126,"count":304,"type":"VEC3"},{"bufferView":7,"byteOffset":0,"componentType":5126,"count":304,"type":"VEC2"}],"asset":{"generator":"FBX2glTF v0.13.1","version":"2.0"},"bufferViews":[{"buffer":0,"byteLength":5064,"byteOffset":0,"target":34963},{"buffer":0,"byteLength":14760,"byteOffset":5064,"target":34962},{"buffer":0,"byteLength":14760,"byteOffset":19824,"target":34962},{"buffer":0,"byteLength":9840,"byteOffset":34584,"target":34962},{"buffer":0,"byteLength":1536,"byteOffset":44424,"target":34963},{"buffer":0,"byteLength":3648,"byteOffset":45960,"target":34962},{"buffer":0,"byteLength":3648,"byteOffset":49608,"target":34962},{"buffer":0,"byteLength":2432,"byteOffset":53256,"target":34962}],"buffers":[{"byteLength":55688,"uri":"Umbrella Final.bin"}],"images":[{"name":"Umbrella_BaseColor","uri":"Umbrella_BaseColor.png"}],"materials":[{"alphaMode":"OPAQUE","doubleSided":false,"extras":{"fromFBX":{"isTruePBR":false,"shadingModel":"Phong"}},"name":"Umbrella","pbrMetallicRoughness":{"baseColorFactor":[1,1,1,1],"baseColorTexture":{"index":0,"texCoord":0},"metallicFactor":0.400000005960464,"roughnessFactor":0.272165536880493}},{"alphaMode":"OPAQUE","doubleSided":false,"extras":{"fromFBX":{"isTruePBR":false,"shadingModel":"Phong"}},"name":"Glass","pbrMetallicRoughness":{"baseColorFactor":[0.800000011920929,0.800000011920929,0.800000011920929,1],"metallicFactor":0.400000005960464,"roughnessFactor":0.229415729641914}}],"meshes":[{"name":"Umbrella","primitives":[{"attributes":{"NORMAL":2,"POSITION":1,"TEXCOORD_0":3},"indices":0,"material":0,"mode":4}]},{"name":"Umbrella.001","primitives":[{"attributes":{"NORMAL":6,"POSITION":5,"TEXCOORD_0":7},"indices":4,"material":1,"mode":4}]}],"nodes":[{"children":[1],"mesh":0,"name":"Umbrella","rotation":[-0.70710682868957,0,0,0.707106709480286],"scale":[100,100,100],"translation":[15.7496747970581,0.0163018703460693,-2.42333316802979]},{"mesh":1,"name":"Umbrella.001","rotation":[-0,-0,0,1],"scale":[1,1,1],"translation":[0,0,0]}],"samplers":[{}],"scene":0,"scenes":[{"name":"Root Scene","nodes":[0]}],"textures":[{"name":"base_color_texture","sampler":0,"source":0}]}