{"accessors":[{"bufferView":0,"byteOffset":0,"componentType":5123,"count":60,"type":"SCALAR"},{"bufferView":1,"byteOffset":0,"componentType":5126,"count":32,"max":[0.00999999977648258,0.00999999977648258,0.00641147373244166],"min":[-0.00999999977648,-0.00999999977648,0],"type":"VEC3"},{"bufferView":2,"byteOffset":0,"componentType":5126,"count":32,"type":"VEC3"},{"bufferView":3,"byteOffset":0,"componentType":5126,"count":32,"type":"VEC2"},{"bufferView":4,"byteOffset":0,"componentType":5123,"count":3414,"type":"SCALAR"},{"bufferView":5,"byteOffset":0,"componentType":5126,"count":1110,"max":[0.145328238606453,0.0943844169378281,0.0292874071747065],"min":[-0.05750177428126,-0.10395238548517,-0.01275970414281],"type":"VEC3"},{"bufferView":6,"byteOffset":0,"componentType":5126,"count":1110,"type":"VEC3"},{"bufferView":7,"byteOffset":0,"componentType":5126,"count":1110,"type":"VEC2"},{"bufferView":8,"byteOffset":0,"componentType":5123,"count":6,"type":"SCALAR"},{"bufferView":9,"byteOffset":0,"componentType":5126,"count":4,"max":[0.245427370071411,0.245427370071411,0],"min":[-0.24542737007141,-0.24542737007141,0],"type":"VEC3"},{"bufferView":10,"byteOffset":0,"componentType":5126,"count":4,"type":"VEC3"},{"bufferView":11,"byteOffset":0,"componentType":5126,"count":4,"type":"VEC2"}],"asset":{"generator":"FBX2glTF v0.13.1","version":"2.0"},"bufferViews":[{"buffer":0,"byteLength":120,"byteOffset":0,"target":34963},{"buffer":0,"byteLength":384,"byteOffset":120,"target":34962},{"buffer":0,"byteLength":384,"byteOffset":504,"target":34962},{"buffer":0,"byteLength":256,"byteOffset":888,"target":34962},{"buffer":0,"byteLength":6828,"byteOffset":1144,"target":34963},{"buffer":0,"byteLength":13320,"byteOffset":7972,"target":34962},{"buffer":0,"byteLength":13320,"byteOffset":21292,"target":34962},{"buffer":0,"byteLength":8880,"byteOffset":34612,"target":34962},{"buffer":0,"byteLength":12,"byteOffset":43492,"target":34963},{"buffer":0,"byteLength":48,"byteOffset":43504,"target":34962},{"buffer":0,"byteLength":48,"byteOffset":43552,"target":34962},{"buffer":0,"byteLength":32,"byteOffset":43600,"target":34962}],"buffers":[{"byteLength":43632,"uri":"Colliders.bin"}],"materials":[{"alphaMode":"OPAQUE","doubleSided":false,"extras":{"fromFBX":{"isTruePBR":false,"shadingModel":"Lambert"}},"name":"DefaultMaterial","pbrMetallicRoughness":{"baseColorFactor":[0.5,0.5,0.5,1],"metallicFactor":0.200000002980232,"roughnessFactor":0.800000011920929}}],"meshes":[{"name":"Plane.003","primitives":[{"attributes":{"NORMAL":2,"POSITION":1,"TEXCOORD_0":3},"indices":0,"material":0,"mode":4}]},{"name":"Plane.005","primitives":[{"attributes":{"NORMAL":6,"POSITION":5,"TEXCOORD_0":7},"indices":4,"material":0,"mode":4}]},{"name":"Plane.004","primitives":[{"attributes":{"NORMAL":10,"POSITION":9,"TEXCOORD_0":11},"indices":8,"material":0,"mode":4}]}],"nodes":[{"mesh":0,"name":"Plane.003","rotation":[-0.70710682868957,0,0,0.707106709480286],"scale":[1009.39233398438,1666.82360839844,1009.39233398438],"translation":[23.8380432128906,-1.27483916282654,-1.35829544067383]},{"mesh":1,"name":"Plane.005","rotation":[-0.70710682868957,0,0,0.707106709480286],"scale":[100,100,100],"translation":[0,0,0]},{"mesh":2,"name":"Plane.004","rotation":[-0.70710682868957,0,0,0.707106709480286],"scale":[100,100,100],"translation":[34.7090644836426,-1.26676952838898,0.0312585830688477]}],"samplers":[{}],"scene":0,"scenes":[{"name":"Root Scene","nodes":[0,1,2]}]}