{"accessors":[{"bufferView":0,"byteOffset":0,"componentType":5123,"count":219624,"type":"SCALAR"},{"bufferView":1,"byteOffset":0,"componentType":5126,"count":38523,"max":[0.0484901815652847,0.0326966233551502,0.00961907487362623],"min":[-0.00894521176815,-0.00843008514494,0.00044049875577911],"type":"VEC3"},{"bufferView":2,"byteOffset":0,"componentType":5126,"count":38523,"type":"VEC3"},{"bufferView":3,"byteOffset":0,"componentType":5126,"count":38523,"type":"VEC2"},{"bufferView":4,"byteOffset":0,"componentType":5126,"count":38523,"type":"VEC2"},{"bufferView":5,"byteOffset":0,"componentType":5123,"count":315903,"type":"SCALAR"},{"bufferView":6,"byteOffset":0,"componentType":5126,"count":56421,"max":[0.0425240695476532,0.0485225208103657,0.017122408375144],"min":[-0.02788929082453,-0.01593663357198,-0.00493255862966],"type":"VEC3"},{"bufferView":7,"byteOffset":0,"componentType":5126,"count":56421,"type":"VEC3"},{"bufferView":8,"byteOffset":0,"componentType":5126,"count":56421,"type":"VEC2"},{"bufferView":9,"byteOffset":0,"componentType":5126,"count":56421,"type":"VEC2"},{"bufferView":10,"byteOffset":0,"componentType":5123,"count":290484,"type":"SCALAR"},{"bufferView":11,"byteOffset":0,"componentType":5126,"count":50356,"max":[0.0243681967258453,0.0156769827008247,0.00618338910862803],"min":[-0.0262816939503,-0.0192690026015,-0.00149733060971],"type":"VEC3"},{"bufferView":12,"byteOffset":0,"componentType":5126,"count":50356,"type":"VEC3"},{"bufferView":13,"byteOffset":0,"componentType":5126,"count":50356,"type":"VEC2"},{"bufferView":14,"byteOffset":0,"componentType":5126,"count":50356,"type":"VEC2"},{"bufferView":15,"byteOffset":0,"componentType":5123,"count":204936,"type":"SCALAR"},{"bufferView":16,"byteOffset":0,"componentType":5126,"count":36052,"max":[0.0245354529470205,0.0459736809134483,0.00353439431637526],"min":[-0.01140432804823,-0.01842578314245,-0.01597124524415],"type":"VEC3"},{"bufferView":17,"byteOffset":0,"componentType":5126,"count":36052,"type":"VEC3"},{"bufferView":18,"byteOffset":0,"componentType":5126,"count":36052,"type":"VEC2"},{"bufferView":19,"byteOffset":0,"componentType":5126,"count":36052,"type":"VEC2"},{"bufferView":20,"byteOffset":0,"componentType":5123,"count":52224,"type":"SCALAR"},{"bufferView":21,"byteOffset":0,"componentType":5126,"count":8962,"max":[0.0152913434430957,0.0154282385483384,-0.00276268064044],"min":[-0.01489674020559,-0.01518137659878,-0.01278064958751],"type":"VEC3"},{"bufferView":22,"byteOffset":0,"componentType":5126,"count":8962,"type":"VEC3"},{"bufferView":23,"byteOffset":0,"componentType":5126,"count":8962,"type":"VEC2"},{"bufferView":24,"byteOffset":0,"componentType":5126,"count":8962,"type":"VEC2"},{"bufferView":25,"byteOffset":0,"componentType":5123,"count":105216,"type":"SCALAR"},{"bufferView":26,"byteOffset":0,"componentType":5126,"count":18116,"max":[0.048687219619751,0.021885234862566,-0.00321320374496],"min":[0.0169431902468204,-0.07344567775726,-0.02268536575139],"type":"VEC3"},{"bufferView":27,"byteOffset":0,"componentType":5126,"count":18116,"type":"VEC3"},{"bufferView":28,"byteOffset":0,"componentType":5126,"count":18116,"type":"VEC2"},{"bufferView":29,"byteOffset":0,"componentType":5126,"count":18116,"type":"VEC2"},{"bufferView":30,"byteOffset":0,"componentType":5123,"count":105216,"type":"SCALAR"},{"bufferView":31,"byteOffset":0,"componentType":5126,"count":18116,"max":[0.0578427650034428,0.00594803271815181,-0.01200286485255],"min":[-0.05415915325284,-0.08879890292883,-0.03221667930484],"type":"VEC3"},{"bufferView":32,"byteOffset":0,"componentType":5126,"count":18116,"type":"VEC3"},{"bufferView":33,"byteOffset":0,"componentType":5126,"count":18116,"type":"VEC2"},{"bufferView":34,"byteOffset":0,"componentType":5126,"count":18116,"type":"VEC2"}],"asset":{"generator":"FBX2glTF v0.13.1","version":"2.0"},"bufferViews":[{"buffer":0,"byteLength":439248,"byteOffset":0,"target":34963},{"buffer":0,"byteLength":462276,"byteOffset":439248,"target":34962},{"buffer":0,"byteLength":462276,"byteOffset":901524,"target":34962},{"buffer":0,"byteLength":308184,"byteOffset":1363800,"target":34962},{"buffer":0,"byteLength":308184,"byteOffset":1671984,"target":34962},{"buffer":0,"byteLength":631806,"byteOffset":1980168,"target":34963},{"buffer":0,"byteLength":677052,"byteOffset":2611976,"target":34962},{"buffer":0,"byteLength":677052,"byteOffset":3289028,"target":34962},{"buffer":0,"byteLength":451368,"byteOffset":3966080,"target":34962},{"buffer":0,"byteLength":451368,"byteOffset":4417448,"target":34962},{"buffer":0,"byteLength":580968,"byteOffset":4868816,"target":34963},{"buffer":0,"byteLength":604272,"byteOffset":5449784,"target":34962},{"buffer":0,"byteLength":604272,"byteOffset":6054056,"target":34962},{"buffer":0,"byteLength":402848,"byteOffset":6658328,"target":34962},{"buffer":0,"byteLength":402848,"byteOffset":7061176,"target":34962},{"buffer":0,"byteLength":409872,"byteOffset":7464024,"target":34963},{"buffer":0,"byteLength":432624,"byteOffset":7873896,"target":34962},{"buffer":0,"byteLength":432624,"byteOffset":8306520,"target":34962},{"buffer":0,"byteLength":288416,"byteOffset":8739144,"target":34962},{"buffer":0,"byteLength":288416,"byteOffset":9027560,"target":34962},{"buffer":0,"byteLength":104448,"byteOffset":9315976,"target":34963},{"buffer":0,"byteLength":107544,"byteOffset":9420424,"target":34962},{"buffer":0,"byteLength":107544,"byteOffset":9527968,"target":34962},{"buffer":0,"byteLength":71696,"byteOffset":9635512,"target":34962},{"buffer":0,"byteLength":71696,"byteOffset":9707208,"target":34962},{"buffer":0,"byteLength":210432,"byteOffset":9778904,"target":34963},{"buffer":0,"byteLength":217392,"byteOffset":9989336,"target":34962},{"buffer":0,"byteLength":217392,"byteOffset":10206728,"target":34962},{"buffer":0,"byteLength":144928,"byteOffset":10424120,"target":34962},{"buffer":0,"byteLength":144928,"byteOffset":10569048,"target":34962},{"buffer":0,"byteLength":210432,"byteOffset":10713976,"target":34963},{"buffer":0,"byteLength":217392,"byteOffset":10924408,"target":34962},{"buffer":0,"byteLength":217392,"byteOffset":11141800,"target":34962},{"buffer":0,"byteLength":144928,"byteOffset":11359192,"target":34962},{"buffer":0,"byteLength":144928,"byteOffset":11504120,"target":34962}],"buffers":[{"byteLength":11649048,"uri":"Fabric.bin"}],"images":[{"name":"Main Room Couch_BaseColor","uri":"Substance/Candy Cove Main Room Couch/Main Room Couch_BaseColor.png"},{"name":"Ladder Front Couch_BaseColor","uri":"Substance/Front Ladder Cocuh/Ladder Front Couch_BaseColor.png"},{"name":"Candy Cove Bed_BaseColor","uri":"Substance/Candy Cove Bed/Candy Cove Bed_BaseColor.png"}],"materials":[{"alphaMode":"OPAQUE","doubleSided":false,"extras":{"fromFBX":{"isTruePBR":false,"shadingModel":"Phong"}},"name":"Main Room Couch","pbrMetallicRoughness":{"baseColorFactor":[1,1,1,1],"baseColorTexture":{"index":0,"texCoord":0},"metallicFactor":0.400000005960464,"roughnessFactor":0.272165536880493}},{"alphaMode":"OPAQUE","doubleSided":false,"extras":{"fromFBX":{"isTruePBR":false,"shadingModel":"Lambert"}},"name":"DefaultMaterial","pbrMetallicRoughness":{"baseColorFactor":[0.5,0.5,0.5,1],"metallicFactor":0.200000002980232,"roughnessFactor":0.800000011920929}},{"alphaMode":"OPAQUE","doubleSided":false,"extras":{"fromFBX":{"isTruePBR":false,"shadingModel":"Phong"}},"name":"Ladder Front Couch","pbrMetallicRoughness":{"baseColorFactor":[1,1,1,1],"baseColorTexture":{"index":1,"texCoord":0},"metallicFactor":0.400000005960464,"roughnessFactor":0.272165536880493}},{"alphaMode":"OPAQUE","doubleSided":false,"extras":{"fromFBX":{"isTruePBR":false,"shadingModel":"Phong"}},"name":"Fabric 1","pbrMetallicRoughness":{"baseColorFactor":[0.800000011920929,0.800000011920929,0.800000011920929,1],"metallicFactor":0.400000005960464,"roughnessFactor":0.272165536880493}},{"alphaMode":"OPAQUE","doubleSided":false,"extras":{"fromFBX":{"isTruePBR":false,"shadingModel":"Phong"}},"name":"Fabric 2","pbrMetallicRoughness":{"baseColorFactor":[0.800000011920929,0.800000011920929,0.800000011920929,1],"metallicFactor":0.400000005960464,"roughnessFactor":0.272165536880493}},{"alphaMode":"OPAQUE","doubleSided":false,"extras":{"fromFBX":{"isTruePBR":false,"shadingModel":"Phong"}},"name":"Fabric 3","pbrMetallicRoughness":{"baseColorFactor":[0.800000011920929,0.800000011920929,0.800000011920929,1],"metallicFactor":0.400000005960464,"roughnessFactor":0.272165536880493}},{"alphaMode":"OPAQUE","doubleSided":false,"extras":{"fromFBX":{"isTruePBR":false,"shadingModel":"Phong"}},"name":"Candy Cove Bed","pbrMetallicRoughness":{"baseColorFactor":[1,1,1,1],"baseColorTexture":{"index":2,"texCoord":0},"metallicFactor":0.400000005960464,"roughnessFactor":0.272165536880493}}],"meshes":[{"name":"Main Room Couch","primitives":[{"attributes":{"NORMAL":2,"POSITION":1,"TEXCOORD_0":3,"TEXCOORD_1":4},"indices":0,"material":0,"mode":4}]},{"name":"Ladder Front Couch","primitives":[{"attributes":{"NORMAL":7,"POSITION":6,"TEXCOORD_0":8,"TEXCOORD_1":9},"indices":5,"material":2,"mode":4}]},{"name":"Candy Cove Bed","primitives":[{"attributes":{"NORMAL":12,"POSITION":11,"TEXCOORD_0":13,"TEXCOORD_1":14},"indices":10,"material":6,"mode":4}]},{"name":"Bean Bag Comf","primitives":[{"attributes":{"NORMAL":17,"POSITION":16,"TEXCOORD_0":18,"TEXCOORD_1":19},"indices":15,"material":1,"mode":4}]},{"name":"Fabric","primitives":[{"attributes":{"NORMAL":22,"POSITION":21,"TEXCOORD_0":23,"TEXCOORD_1":24},"indices":20,"material":3,"mode":4},{"attributes":{"NORMAL":27,"POSITION":26,"TEXCOORD_0":28,"TEXCOORD_1":29},"indices":25,"material":4,"mode":4},{"attributes":{"NORMAL":32,"POSITION":31,"TEXCOORD_0":33,"TEXCOORD_1":34},"indices":30,"material":5,"mode":4}]}],"nodes":[{"mesh":0,"name":"Main Room Couch","rotation":[-0.70710682868957,0,0,0.707106709480286],"scale":[100,100,100],"translation":[-3.76194214820862,-0.6718338727951,3.32805132865906]},{"mesh":3,"name":"Bean Bag Comf","rotation":[-0.70710676908493,-0,0,0.707106828689575],"scale":[91.2849731445312,91.2849731445312,91.2849731445312],"translation":[-3.74085378646851,0.834711372852325,-0.89185130596161]},{"mesh":1,"name":"Ladder Front Couch","rotation":[-0.70710682868957,0,0,0.707106709480286],"scale":[100,100,100],"translation":[4.63207817077637,0.00415200740098953,4.85841226577759]},{"mesh":4,"name":"Fabric","rotation":[-0.6823313832283,0.185536950826645,0.185536980628967,0.682331264019012],"scale":[100,100,100],"translation":[-4.29466342926025,3.28861570358276,-4.51048612594604]},{"mesh":2,"name":"Candy Cove Bed","rotation":[-0.70710682868957,0,0,0.707106709480286],"scale":[100,100,100],"translation":[-1.30279970169067,0.147453308105469,-6.25130891799927]}],"samplers":[{}],"scene":0,"scenes":[{"name":"Root Scene","nodes":[0,1,2,3,4]}],"textures":[{"name":"base_color_texture","sampler":0,"source":0},{"name":"base_color_texture 1","sampler":0,"source":1},{"name":"base_color_texture 2","sampler":0,"source":2}]}