{"accessors":[{"bufferView":0,"byteOffset":0,"componentType":5123,"count":90564,"type":"SCALAR"},{"bufferView":1,"byteOffset":0,"componentType":5126,"count":16696,"max":[0.0631521195173264,0.0475216805934906,0.0272956117987633],"min":[-0.04533776268363,-0.07426665723324,-0.07858729362488],"type":"VEC3"},{"bufferView":2,"byteOffset":0,"componentType":5126,"count":16696,"type":"VEC3"},{"bufferView":3,"byteOffset":0,"componentType":5123,"count":92928,"type":"SCALAR"},{"bufferView":4,"byteOffset":0,"componentType":5126,"count":17072,"max":[0.0624206997454166,0.0483236126601696,0.0261085368692875],"min":[-0.04565479978919,-0.07458733767271,-0.07858365774155],"type":"VEC3"},{"bufferView":5,"byteOffset":0,"componentType":5126,"count":17072,"type":"VEC3"},{"bufferView":6,"byteOffset":0,"componentType":5123,"count":86592,"type":"SCALAR"},{"bufferView":7,"byteOffset":0,"componentType":5126,"count":15488,"max":[0.0621066316962242,0.0481100641191006,0.0259286668151617],"min":[-0.0452314466238,-0.07416608929634,-0.0781509205699],"type":"VEC3"},{"bufferView":8,"byteOffset":0,"componentType":5126,"count":15488,"type":"VEC3"}],"asset":{"generator":"FBX2glTF v0.13.1","version":"2.0"},"bufferViews":[{"buffer":0,"byteLength":181128,"byteOffset":0,"target":34963},{"buffer":0,"byteLength":200352,"byteOffset":181128,"target":34962},{"buffer":0,"byteLength":200352,"byteOffset":381480,"target":34962},{"buffer":0,"byteLength":185856,"byteOffset":581832,"target":34963},{"buffer":0,"byteLength":204864,"byteOffset":767688,"target":34962},{"buffer":0,"byteLength":204864,"byteOffset":972552,"target":34962},{"buffer":0,"byteLength":173184,"byteOffset":1177416,"target":34963},{"buffer":0,"byteLength":185856,"byteOffset":1350600,"target":34962},{"buffer":0,"byteLength":185856,"byteOffset":1536456,"target":34962}],"buffers":[{"byteLength":1722312,"uri":"Hanging Lights Umbrella.bin"}],"materials":[{"alphaMode":"OPAQUE","doubleSided":false,"extras":{"fromFBX":{"isTruePBR":false,"shadingModel":"Phong"}},"name":"Cable","pbrMetallicRoughness":{"baseColorFactor":[0.800000011920929,0.800000011920929,0.800000011920929,1],"metallicFactor":0.400000005960464,"roughnessFactor":0.272165536880493}},{"alphaMode":"OPAQUE","doubleSided":false,"extras":{"fromFBX":{"isTruePBR":false,"shadingModel":"Phong"}},"name":"Glass","pbrMetallicRoughness":{"baseColorFactor":[0.800000011920929,0.800000011920929,0.800000011920929,1],"metallicFactor":0.400000005960464,"roughnessFactor":0.229415729641914}},{"alphaMode":"OPAQUE","doubleSided":false,"extras":{"fromFBX":{"isTruePBR":false,"shadingModel":"Phong"}},"name":"Emm","pbrMetallicRoughness":{"baseColorFactor":[0.800000011920929,0.800000011920929,0.800000011920929,1],"metallicFactor":0.400000005960464,"roughnessFactor":0.229415729641914}}],"meshes":[{"name":"FairyLightCable.006","primitives":[{"attributes":{"NORMAL":2,"POSITION":1},"indices":0,"material":0,"mode":4}]},{"name":"FairyLightCable.010","primitives":[{"attributes":{"NORMAL":5,"POSITION":4},"indices":3,"material":1,"mode":4}]},{"name":"FairyLightCable.011","primitives":[{"attributes":{"NORMAL":8,"POSITION":7},"indices":6,"material":2,"mode":4}]}],"nodes":[{"children":[1,2],"mesh":0,"name":"FairyLightCable.006","rotation":[-0.51803636550903,0.48128816485405,0.481287956237793,0.518036603927612],"scale":[62.4446601867676,62.4446601867676,62.4446640014648],"translation":[16.5624809265137,4.43457460403442,-2.41808223724365]},{"mesh":1,"name":"FairyLightCable.010","rotation":[0.00000000000000000000001178732215,0,0.00000000000000000693889307672662,1],"scale":[1.00000011920929,1.00000011920929,1],"translation":[0.00000000953674295089968,-0.00000003814697,-0.00000001430511]},{"mesh":2,"name":"FairyLightCable.011","rotation":[0.00000000000000000000001178732215,0,0.00000000000000000693889307672662,1],"scale":[1.00000011920929,1.00000011920929,1],"translation":[0.00000000953674295089968,-0.00000003814697,-0.00000001430511]}],"samplers":[{}],"scene":0,"scenes":[{"name":"Root Scene","nodes":[0]}]}