{"accessors":[{"bufferView":0,"byteOffset":0,"componentType":5123,"count":83376,"type":"SCALAR"},{"bufferView":1,"byteOffset":0,"componentType":5126,"count":16984,"max":[0.155632898211479,0.0701558589935303,0.0124995978549123],"min":[-0.03718063607812,-0.03814978152513,-0.04019219428301],"type":"VEC3"},{"bufferView":2,"byteOffset":0,"componentType":5126,"count":16984,"type":"VEC3"},{"bufferView":3,"byteOffset":0,"componentType":5123,"count":120906,"type":"SCALAR"},{"bufferView":4,"byteOffset":0,"componentType":5126,"count":27696,"max":[0.155632898211479,0.0702875480055809,0.013445220887661],"min":[-0.03718063607812,-0.03893510252237,-0.04068372771144],"type":"VEC3"},{"bufferView":5,"byteOffset":0,"componentType":5126,"count":27696,"type":"VEC3"},{"bufferView":6,"byteOffset":0,"componentType":5123,"count":101904,"type":"SCALAR"},{"bufferView":7,"byteOffset":0,"componentType":5126,"count":18721,"max":[0.155940666794777,0.0706322640180588,0.0128786498680711],"min":[-0.03736647218466,-0.03845951333642,-0.04062771052122],"type":"VEC3"},{"bufferView":8,"byteOffset":0,"componentType":5126,"count":18721,"type":"VEC3"}],"asset":{"generator":"FBX2glTF v0.13.1","version":"2.0"},"bufferViews":[{"buffer":0,"byteLength":166752,"byteOffset":0,"target":34963},{"buffer":0,"byteLength":203808,"byteOffset":166752,"target":34962},{"buffer":0,"byteLength":203808,"byteOffset":370560,"target":34962},{"buffer":0,"byteLength":241812,"byteOffset":574368,"target":34963},{"buffer":0,"byteLength":332352,"byteOffset":816180,"target":34962},{"buffer":0,"byteLength":332352,"byteOffset":1148532,"target":34962},{"buffer":0,"byteLength":203808,"byteOffset":1480884,"target":34963},{"buffer":0,"byteLength":224652,"byteOffset":1684692,"target":34962},{"buffer":0,"byteLength":224652,"byteOffset":1909344,"target":34962}],"buffers":[{"byteLength":2133996,"uri":"Hanging Lights.bin"}],"materials":[{"alphaMode":"OPAQUE","doubleSided":false,"extras":{"fromFBX":{"isTruePBR":false,"shadingModel":"Phong"}},"name":"Emm","pbrMetallicRoughness":{"baseColorFactor":[0.800000011920929,0.800000011920929,0.800000011920929,1],"metallicFactor":0.400000005960464,"roughnessFactor":0.229415729641914}},{"alphaMode":"OPAQUE","doubleSided":false,"extras":{"fromFBX":{"isTruePBR":false,"shadingModel":"Phong"}},"name":"Cable","pbrMetallicRoughness":{"baseColorFactor":[0.800000011920929,0.800000011920929,0.800000011920929,1],"metallicFactor":0.400000005960464,"roughnessFactor":0.272165536880493}},{"alphaMode":"OPAQUE","doubleSided":false,"extras":{"fromFBX":{"isTruePBR":false,"shadingModel":"Phong"}},"name":"Glass","pbrMetallicRoughness":{"baseColorFactor":[0.800000011920929,0.800000011920929,0.800000011920929,1],"metallicFactor":0.400000005960464,"roughnessFactor":0.229415729641914}}],"meshes":[{"name":"Emm","primitives":[{"attributes":{"NORMAL":2,"POSITION":1},"indices":0,"material":0,"mode":4}]},{"name":"Cable","primitives":[{"attributes":{"NORMAL":5,"POSITION":4},"indices":3,"material":1,"mode":4}]},{"name":"Glass","primitives":[{"attributes":{"NORMAL":8,"POSITION":7},"indices":6,"material":2,"mode":4}]}],"nodes":[{"mesh":0,"name":"Emm","rotation":[-0.51803636550903,0.48128816485405,0.481287956237793,0.518036603927612],"scale":[62.4446601867676,62.4446601867676,62.4446640014648],"translation":[-0.36587950587273,1.91697835922241,1.88683617115021]},{"mesh":1,"name":"Cable","rotation":[-0.51803636550903,0.48128816485405,0.481287956237793,0.518036603927612],"scale":[62.4446601867676,62.4446601867676,62.4446640014648],"translation":[-0.36587950587273,1.91697835922241,1.88683617115021]},{"mesh":2,"name":"Glass","rotation":[-0.51803636550903,0.48128816485405,0.481287956237793,0.518036603927612],"scale":[62.4446601867676,62.4446601867676,62.4446640014648],"translation":[-0.36587950587273,1.91697835922241,1.88683617115021]}],"samplers":[{}],"scene":0,"scenes":[{"name":"Root Scene","nodes":[0,1,2]}]}