{"accessors":[{"bufferView":0,"byteOffset":0,"componentType":5123,"count":74496,"type":"SCALAR"},{"bufferView":1,"byteOffset":0,"componentType":5126,"count":14588,"max":[0.206360176205635,0.187484830617905,0.112221613526344],"min":[-0.06393696367741,-0.18904049694538,-0.05023588240147],"type":"VEC3"},{"bufferView":2,"byteOffset":0,"componentType":5126,"count":14588,"type":"VEC3"},{"bufferView":3,"byteOffset":0,"componentType":5126,"count":14588,"type":"VEC2"},{"bufferView":4,"byteOffset":0,"componentType":5126,"count":14588,"type":"VEC2"},{"bufferView":5,"byteOffset":0,"componentType":5123,"count":15360,"type":"SCALAR"},{"bufferView":6,"byteOffset":0,"componentType":5126,"count":2968,"max":[0.20635849237442,0.452555656433105,0.141702473163605],"min":[0.112184204161167,-0.45442813634872,-0.05096805468202],"type":"VEC3"},{"bufferView":7,"byteOffset":0,"componentType":5126,"count":2968,"type":"VEC3"},{"bufferView":8,"byteOffset":0,"componentType":5126,"count":2968,"type":"VEC2"},{"bufferView":9,"byteOffset":0,"componentType":5126,"count":2968,"type":"VEC2"}],"asset":{"generator":"FBX2glTF v0.13.1","version":"2.0"},"bufferViews":[{"buffer":0,"byteLength":148992,"byteOffset":0,"target":34963},{"buffer":0,"byteLength":175056,"byteOffset":148992,"target":34962},{"buffer":0,"byteLength":175056,"byteOffset":324048,"target":34962},{"buffer":0,"byteLength":116704,"byteOffset":499104,"target":34962},{"buffer":0,"byteLength":116704,"byteOffset":615808,"target":34962},{"buffer":0,"byteLength":30720,"byteOffset":732512,"target":34963},{"buffer":0,"byteLength":35616,"byteOffset":763232,"target":34962},{"buffer":0,"byteLength":35616,"byteOffset":798848,"target":34962},{"buffer":0,"byteLength":23744,"byteOffset":834464,"target":34962},{"buffer":0,"byteLength":23744,"byteOffset":858208,"target":34962}],"buffers":[{"byteLength":881952,"uri":"Moutains.bin"}],"images":[{"name":"Rock018_1K_Color","uri":"../Textures/Stone/Rock018_1K_Color.png"}],"materials":[{"alphaMode":"OPAQUE","doubleSided":false,"extras":{"fromFBX":{"isTruePBR":false,"shadingModel":"Phong"}},"name":"Stone","pbrMetallicRoughness":{"baseColorFactor":[1,1,1,1],"baseColorTexture":{"index":0,"texCoord":0},"metallicFactor":0.400000005960464,"roughnessFactor":0.272165536880493}}],"meshes":[{"name":"Cube.002","primitives":[{"attributes":{"NORMAL":2,"POSITION":1,"TEXCOORD_0":3,"TEXCOORD_1":4},"indices":0,"material":0,"mode":4}]},{"name":"Cube.004","primitives":[{"attributes":{"NORMAL":7,"POSITION":6,"TEXCOORD_0":8,"TEXCOORD_1":9},"indices":5,"material":0,"mode":4}]}],"nodes":[{"mesh":0,"name":"Cube.002","rotation":[-0.70710682868957,0,0,0.707106709480286],"scale":[100,100,100],"translation":[0,3.14550733566284,0]},{"mesh":1,"name":"Cube.004","rotation":[-0.70710676908493,-0,0,0.707106828689575],"scale":[99.0563659667969,99.0563659667969,99.0563659667969],"translation":[0,3.14550733566284,0]}],"samplers":[{}],"scene":0,"scenes":[{"name":"Root Scene","nodes":[0,1]}],"textures":[{"name":"base_color_texture","sampler":0,"source":0}]}