{"accessors":[{"bufferView":0,"byteOffset":0,"componentType":5123,"count":228,"type":"SCALAR"},{"bufferView":1,"byteOffset":0,"componentType":5126,"count":152,"max":[0.0714971050620079,0.0329315662384033,0.00130699086003006],"min":[-0.01167332939804,-0.07998783886433,-0.01178850885481],"type":"VEC3"},{"bufferView":2,"byteOffset":0,"componentType":5126,"count":152,"type":"VEC3"},{"bufferView":3,"byteOffset":0,"componentType":5126,"count":152,"type":"VEC2"},{"bufferView":4,"byteOffset":0,"componentType":5126,"count":152,"type":"VEC2"},{"bufferView":5,"byteOffset":0,"componentType":5123,"count":96,"type":"SCALAR"},{"bufferView":6,"byteOffset":0,"componentType":5126,"count":64,"max":[0.041234415024519,0.0170431509613991,0.00810236390680075],"min":[-0.03056052699685,-0.02502482384443,-0.00170327327214],"type":"VEC3"},{"bufferView":7,"byteOffset":0,"componentType":5126,"count":64,"type":"VEC3"},{"bufferView":8,"byteOffset":0,"componentType":5126,"count":64,"type":"VEC2"},{"bufferView":9,"byteOffset":0,"componentType":5126,"count":64,"type":"VEC2"},{"bufferView":10,"byteOffset":0,"componentType":5123,"count":7332,"type":"SCALAR"},{"bufferView":11,"byteOffset":0,"componentType":5126,"count":1690,"max":[0.0122266728430986,-0.05392045527697,0.00067894754465669],"min":[-0.00805450510234,-0.09796439856291,-0.00067894783569],"type":"VEC3"},{"bufferView":12,"byteOffset":0,"componentType":5126,"count":1690,"type":"VEC3"},{"bufferView":13,"byteOffset":0,"componentType":5126,"count":1690,"type":"VEC2"},{"bufferView":14,"byteOffset":0,"componentType":5126,"count":1690,"type":"VEC2"},{"bufferView":15,"byteOffset":0,"componentType":5123,"count":258432,"type":"SCALAR"},{"bufferView":16,"byteOffset":0,"componentType":5126,"count":49881,"max":[0.145328253507614,0.0914337262511253,0.029287401586771],"min":[-0.05750176310539,-0.0977783575654,-0.01275970507413],"type":"VEC3"},{"bufferView":17,"byteOffset":0,"componentType":5126,"count":49881,"type":"VEC3"},{"bufferView":18,"byteOffset":0,"componentType":5126,"count":49881,"type":"VEC2"},{"bufferView":19,"byteOffset":0,"componentType":5126,"count":49881,"type":"VEC2"},{"bufferView":20,"byteOffset":0,"componentType":5123,"count":52224,"type":"SCALAR"},{"bufferView":21,"byteOffset":0,"componentType":5126,"count":8962,"max":[0.0124367326498032,0.0176045745611191,0.0045987768098712],"min":[-0.00988106802106,-0.01750977709889,-0.00451456848532],"type":"VEC3"},{"bufferView":22,"byteOffset":0,"componentType":5126,"count":8962,"type":"VEC3"},{"bufferView":23,"byteOffset":0,"componentType":5126,"count":8962,"type":"VEC2"},{"bufferView":24,"byteOffset":0,"componentType":5126,"count":8962,"type":"VEC2"},{"bufferView":25,"byteOffset":0,"componentType":5123,"count":21120,"type":"SCALAR"},{"bufferView":26,"byteOffset":0,"componentType":5126,"count":4399,"max":[0.00863240845501423,0.00558858970180154,0.0002836299536284],"min":[-0.00863241031766,-0.00787546485662,-0.00093441514764],"type":"VEC3"},{"bufferView":27,"byteOffset":0,"componentType":5126,"count":4399,"type":"VEC3"},{"bufferView":28,"byteOffset":0,"componentType":5126,"count":4399,"type":"VEC2"},{"bufferView":29,"byteOffset":0,"componentType":5126,"count":4399,"type":"VEC2"},{"bufferView":30,"byteOffset":0,"componentType":5123,"count":42,"type":"SCALAR"},{"bufferView":31,"byteOffset":0,"componentType":5126,"count":16,"max":[-0.00605639629066,0.034116368740797,0.00181990885175765],"min":[-0.02387251332402,0.016573790460825,0.00181990885175765],"type":"VEC3"},{"bufferView":32,"byteOffset":0,"componentType":5126,"count":16,"type":"VEC3"},{"bufferView":33,"byteOffset":0,"componentType":5126,"count":16,"type":"VEC2"},{"bufferView":34,"byteOffset":0,"componentType":5126,"count":16,"type":"VEC2"}],"asset":{"generator":"FBX2glTF v0.13.1","version":"2.0"},"bufferViews":[{"buffer":0,"byteLength":456,"byteOffset":0,"target":34963},{"buffer":0,"byteLength":1824,"byteOffset":456,"target":34962},{"buffer":0,"byteLength":1824,"byteOffset":2280,"target":34962},{"buffer":0,"byteLength":1216,"byteOffset":4104,"target":34962},{"buffer":0,"byteLength":1216,"byteOffset":5320,"target":34962},{"buffer":0,"byteLength":192,"byteOffset":6536,"target":34963},{"buffer":0,"byteLength":768,"byteOffset":6728,"target":34962},{"buffer":0,"byteLength":768,"byteOffset":7496,"target":34962},{"buffer":0,"byteLength":512,"byteOffset":8264,"target":34962},{"buffer":0,"byteLength":512,"byteOffset":8776,"target":34962},{"buffer":0,"byteLength":14664,"byteOffset":9288,"target":34963},{"buffer":0,"byteLength":20280,"byteOffset":23952,"target":34962},{"buffer":0,"byteLength":20280,"byteOffset":44232,"target":34962},{"buffer":0,"byteLength":13520,"byteOffset":64512,"target":34962},{"buffer":0,"byteLength":13520,"byteOffset":78032,"target":34962},{"buffer":0,"byteLength":516864,"byteOffset":91552,"target":34963},{"buffer":0,"byteLength":598572,"byteOffset":608416,"target":34962},{"buffer":0,"byteLength":598572,"byteOffset":1206988,"target":34962},{"buffer":0,"byteLength":399048,"byteOffset":1805560,"target":34962},{"buffer":0,"byteLength":399048,"byteOffset":2204608,"target":34962},{"buffer":0,"byteLength":104448,"byteOffset":2603656,"target":34963},{"buffer":0,"byteLength":107544,"byteOffset":2708104,"target":34962},{"buffer":0,"byteLength":107544,"byteOffset":2815648,"target":34962},{"buffer":0,"byteLength":71696,"byteOffset":2923192,"target":34962},{"buffer":0,"byteLength":71696,"byteOffset":2994888,"target":34962},{"buffer":0,"byteLength":42240,"byteOffset":3066584,"target":34963},{"buffer":0,"byteLength":52788,"byteOffset":3108824,"target":34962},{"buffer":0,"byteLength":52788,"byteOffset":3161612,"target":34962},{"buffer":0,"byteLength":35192,"byteOffset":3214400,"target":34962},{"buffer":0,"byteLength":35192,"byteOffset":3249592,"target":34962},{"buffer":0,"byteLength":84,"byteOffset":3284784,"target":34963},{"buffer":0,"byteLength":192,"byteOffset":3284868,"target":34962},{"buffer":0,"byteLength":192,"byteOffset":3285060,"target":34962},{"buffer":0,"byteLength":128,"byteOffset":3285252,"target":34962},{"buffer":0,"byteLength":128,"byteOffset":3285380,"target":34962}],"buffers":[{"byteLength":3285508,"uri":"No Colliders.bin"}],"images":[{"name":"Wood Beams Candy Cove_BaseColor","uri":"Substance/Candy Cove Beams/Wood Beams Candy Cove_BaseColor.png"}],"materials":[{"alphaMode":"OPAQUE","doubleSided":false,"extras":{"fromFBX":{"isTruePBR":false,"shadingModel":"Phong"}},"name":"Beams","pbrMetallicRoughness":{"baseColorFactor":[1,1,1,1],"baseColorTexture":{"index":0,"texCoord":0},"metallicFactor":0.400000005960464,"roughnessFactor":0.272165536880493}},{"alphaMode":"OPAQUE","doubleSided":false,"extras":{"fromFBX":{"isTruePBR":false,"shadingModel":"Lambert"}},"name":"DefaultMaterial","pbrMetallicRoughness":{"baseColorFactor":[0.5,0.5,0.5,1],"metallicFactor":0.200000002980232,"roughnessFactor":0.800000011920929}},{"alphaMode":"OPAQUE","doubleSided":false,"extras":{"fromFBX":{"isTruePBR":false,"shadingModel":"Phong"}},"name":"Emm","pbrMetallicRoughness":{"baseColorFactor":[0.800000011920929,0.800000011920929,0.800000011920929,1],"metallicFactor":0.400000005960464,"roughnessFactor":0.229415729641914}}],"meshes":[{"name":"Wood Beams","primitives":[{"attributes":{"NORMAL":2,"POSITION":1,"TEXCOORD_0":3,"TEXCOORD_1":4},"indices":0,"material":0,"mode":4}]},{"name":"Wood Beams.001","primitives":[{"attributes":{"NORMAL":7,"POSITION":6,"TEXCOORD_0":8,"TEXCOORD_1":9},"indices":5,"material":0,"mode":4}]},{"name":"Window Planks","primitives":[{"attributes":{"NORMAL":12,"POSITION":11,"TEXCOORD_0":13,"TEXCOORD_1":14},"indices":10,"material":1,"mode":4}]},{"name":"ThickNess Map","primitives":[{"attributes":{"NORMAL":17,"POSITION":16,"TEXCOORD_0":18,"TEXCOORD_1":19},"indices":15,"material":1,"mode":4}]},{"name":"Plane.014","primitives":[{"attributes":{"NORMAL":22,"POSITION":21,"TEXCOORD_0":23,"TEXCOORD_1":24},"indices":20,"material":1,"mode":4}]},{"name":"Cube.019","primitives":[{"attributes":{"NORMAL":27,"POSITION":26,"TEXCOORD_0":28,"TEXCOORD_1":29},"indices":25,"material":1,"mode":4}]},{"name":"ThickNess Map.001","primitives":[{"attributes":{"NORMAL":32,"POSITION":31,"TEXCOORD_0":33,"TEXCOORD_1":34},"indices":30,"material":2,"mode":4}]}],"nodes":[{"mesh":0,"name":"Wood Beams","rotation":[-0.70710682868957,0,0,0.707106709480286],"scale":[100,100,100],"translation":[-3.63119792938232,2.52345514297485,-4.10933685302734]},{"mesh":1,"name":"Wood Beams.001","rotation":[-0.70543175935745,-0.0486423112452,-0.04864231497049,0.705431699752808],"scale":[100,100,100],"translation":[4.56432580947876,3.46916127204895,8.00685787200928]},{"mesh":2,"name":"Window Planks","rotation":[-0.70710682868957,0,0,0.707106709480286],"scale":[100,100,100],"translation":[1.93037533760071,0.486012101173401,-6.7659068107605]},{"mesh":3,"name":"ThickNess Map","rotation":[-0.70710682868957,0,0,0.707106709480286],"scale":[100,100,100],"translation":[0,0,0]},{"mesh":6,"name":"ThickNess Map.001","rotation":[-0.70710682868957,0,0,0.707106709480286],"scale":[100,100,100],"translation":[0,0,0]},{"mesh":4,"name":"Plane.014","rotation":[-0.50077521800995,0.454324394464493,-0.50182467699051,0.539430737495422],"scale":[84.3112945556641,84.3112945556641,84.3112945556641],"translation":[3.07391262054443,3.10222744941711,8.76928329467773]},{"mesh":5,"name":"Cube.019","rotation":[0.000000021855694143369,0,0,1],"scale":[100,100,100],"translation":[-0.35100820660591,0.840845167636871,4.17077970504761]}],"samplers":[{}],"scene":0,"scenes":[{"name":"Root Scene","nodes":[0,1,2,3,4,5,6]}],"textures":[{"name":"base_color_texture","sampler":0,"source":0}]}