{"accessors":[{"bufferView":0,"byteOffset":0,"componentType":5123,"count":11580,"type":"SCALAR"},{"bufferView":1,"byteOffset":0,"componentType":5126,"count":2026,"max":[0.393275827169418,0.366579502820969,0],"min":[-0.05286419391632,-0.34549769759178,0],"type":"VEC3"},{"bufferView":2,"byteOffset":0,"componentType":5126,"count":2026,"type":"VEC3"},{"bufferView":3,"byteOffset":0,"componentType":5126,"count":2026,"type":"VEC2"}],"asset":{"generator":"FBX2glTF v0.13.1","version":"2.0"},"bufferViews":[{"buffer":0,"byteLength":23160,"byteOffset":0,"target":34963},{"buffer":0,"byteLength":24312,"byteOffset":23160,"target":34962},{"buffer":0,"byteLength":24312,"byteOffset":47472,"target":34962},{"buffer":0,"byteLength":16208,"byteOffset":71784,"target":34962}],"buffers":[{"byteLength":87992,"uri":"Water.bin"}],"materials":[{"alphaMode":"OPAQUE","doubleSided":false,"extras":{"fromFBX":{"isTruePBR":false,"shadingModel":"Phong"}},"name":"Glass","pbrMetallicRoughness":{"baseColorFactor":[0.800000011920929,0.800000011920929,0.800000011920929,1],"metallicFactor":0.400000005960464,"roughnessFactor":0.229415729641914}}],"meshes":[{"name":"Plane.002","primitives":[{"attributes":{"NORMAL":2,"POSITION":1,"TEXCOORD_0":3},"indices":0,"material":0,"mode":4}]}],"nodes":[{"mesh":0,"name":"Plane.002","rotation":[-0.70710682868957,0,0,0.707106709480286],"scale":[100,100,100],"translation":[11.2476902008057,-0.63631170988083,-0.51413297653198]}],"samplers":[{}],"scene":0,"scenes":[{"name":"Root Scene","nodes":[0]}]}