{
  "asset": {
    "generator": "Khronos glTF Blender I/O v3.5.30",
    "version": "2.0"
  },
  "scene": 0,
  "scenes": [
    {
      "name": "Scene",
      "nodes": [
        0
      ]
    }
  ],
  "nodes": [
    {
      "mesh": 0,
      "name": "coast_rocks_01"
    }
  ],
  "materials": [
    {
      "doubleSided": true,
      "name": "coast_rocks_01",
      "normalTexture": {
        "index": 0
      },
      "pbrMetallicRoughness": {
        "baseColorTexture": {
          "index": 1
        },
        "metallicFactor": 0,
        "metallicRoughnessTexture": {
          "index": 2
        }
      }
    }
  ],
  "meshes": [
    {
      "name": "Plane.002",
      "primitives": [
        {
          "attributes": {
            "POSITION": 0,
            "TEXCOORD_0": 1,
            "NORMAL": 2
          },
          "indices": 3,
          "material": 0
        }
      ]
    }
  ],
  "textures": [
    {
      "sampler": 0,
      "source": 0
    },
    {
      "sampler": 0,
      "source": 1
    },
    {
      "sampler": 0,
      "source": 2
    }
  ],
  "images": [
    {
      "mimeType": "image/jpeg",
      "name": "coast_rocks_01_nor_gl",
      "uri": "textures/coast_rocks_01_nor_gl_8k.jpg"
    },
    {
      "mimeType": "image/jpeg",
      "name": "coast_rocks_01_diff",
      "uri": "textures/coast_rocks_01_diff_8k.jpg"
    },
    {
      "mimeType": "image/jpeg",
      "name": "coast_rocks_01_rough",
      "uri": "textures/coast_rocks_01_arm_8k.jpg"
    }
  ],
  "accessors": [
    {
      "bufferView": 0,
      "componentType": 5126,
      "count": 348785,
      "max": [
        27.35528564453125,
        1.3106108903884888,
        15.625489234924316
      ],
      "min": [
        -32.151607513427734,
        -1.9784433841705322,
        -26.894132614135742
      ],
      "type": "VEC3"
    },
    {
      "bufferView": 1,
      "componentType": 5126,
      "count": 348785,
      "type": "VEC2"
    },
    {
      "bufferView": 2,
      "componentType": 5126,
      "count": 348785,
      "type": "VEC3"
    },
    {
      "bufferView": 3,
      "componentType": 5125,
      "count": 2039808,
      "type": "SCALAR"
    }
  ],
  "bufferViews": [
    {
      "buffer": 0,
      "byteLength": 4185420,
      "byteOffset": 0,
      "target": 34962
    },
    {
      "buffer": 0,
      "byteLength": 2790280,
      "byteOffset": 4185420,
      "target": 34962
    },
    {
      "buffer": 0,
      "byteLength": 4185420,
      "byteOffset": 6975700,
      "target": 34962
    },
    {
      "buffer": 0,
      "byteLength": 8159232,
      "byteOffset": 11161120,
      "target": 34963
    }
  ],
  "samplers": [
    {
      "magFilter": 9729,
      "minFilter": 9987
    }
  ],
  "buffers": [
    {
      "byteLength": 19320352,
      "uri": "coast_rocks_01.bin"
    }
  ]
}