{"accessors":[{"bufferView":0,"byteOffset":0,"componentType":5123,"count":6756,"type":"SCALAR"},{"bufferView":1,"byteOffset":0,"componentType":5126,"count":2974,"max":[0.00613771192729473,0.0017950024921447,0.00515996431931853],"min":[-0.00389482825994,-0.00179500249214,-0.00365564133972],"type":"VEC3"},{"bufferView":2,"byteOffset":0,"componentType":5126,"count":2974,"type":"VEC3"},{"bufferView":3,"byteOffset":0,"componentType":5126,"count":2974,"type":"VEC4"},{"bufferView":4,"byteOffset":0,"componentType":5126,"count":2974,"type":"VEC2"}],"asset":{"generator":"FBX2glTF v0.13.1","version":"2.0"},"bufferViews":[{"buffer":0,"byteLength":13512,"byteOffset":0,"target":34963},{"buffer":0,"byteLength":35688,"byteOffset":13512,"target":34962},{"buffer":0,"byteLength":35688,"byteOffset":49200,"target":34962},{"buffer":0,"byteLength":47584,"byteOffset":84888,"target":34962},{"buffer":0,"byteLength":23792,"byteOffset":132472,"target":34962}],"buffers":[{"byteLength":156264,"uri":"Heater.bin"}],"materials":[{"alphaMode":"OPAQUE","doubleSided":false,"extras":{"fromFBX":{"isTruePBR":false,"shadingModel":"Lambert"}},"name":"DefaultMaterial","pbrMetallicRoughness":{"baseColorFactor":[0.5,0.5,0.5,1],"metallicFactor":0.200000002980232,"roughnessFactor":0.800000011920929}}],"meshes":[{"name":"Heater","primitives":[{"attributes":{"NORMAL":2,"POSITION":1,"TANGENT":3,"TEXCOORD_0":4},"indices":0,"material":0,"mode":4}]}],"nodes":[{"mesh":0,"name":"Heater","rotation":[-0.70710682868957,0,0,0.707106709480286],"scale":[100,100,100],"translation":[0,0.374834507703781,0]}],"samplers":[{}],"scene":0,"scenes":[{"name":"Root Scene","nodes":[0]}]}