{"accessors":[{"bufferView":0,"byteOffset":0,"componentType":5123,"count":966,"type":"SCALAR"},{"bufferView":1,"byteOffset":0,"componentType":5126,"count":459,"max":[0.00517711555585265,0.00856475438922644,0.0186814796179533],"min":[-0.00751044694334,-0.01082545612007,-0.00574734993279],"type":"VEC3"},{"bufferView":2,"byteOffset":0,"componentType":5126,"count":459,"type":"VEC3"},{"bufferView":3,"byteOffset":0,"componentType":5126,"count":459,"type":"VEC2"},{"bufferView":4,"byteOffset":0,"componentType":5123,"count":690,"type":"SCALAR"},{"bufferView":5,"byteOffset":0,"componentType":5126,"count":325,"max":[0.00406624563038349,0.00639768783003092,0.0172635745257139],"min":[-0.00525717111304,-0.00813041627407,-0.00469851586968],"type":"VEC3"},{"bufferView":6,"byteOffset":0,"componentType":5126,"count":325,"type":"VEC3"},{"bufferView":7,"byteOffset":0,"componentType":5126,"count":325,"type":"VEC2"},{"bufferView":8,"byteOffset":0,"componentType":5123,"count":690,"type":"SCALAR"},{"bufferView":9,"byteOffset":0,"componentType":5126,"count":323,"max":[0.00339317438192666,0.00823206175118685,0.0173360463231802],"min":[-0.00516983726993,-0.00829225312918,-0.00473269680515],"type":"VEC3"},{"bufferView":10,"byteOffset":0,"componentType":5126,"count":323,"type":"VEC3"},{"bufferView":11,"byteOffset":0,"componentType":5126,"count":323,"type":"VEC2"}],"asset":{"generator":"FBX2glTF v0.13.1","version":"2.0"},"bufferViews":[{"buffer":0,"byteLength":1932,"byteOffset":0,"target":34963},{"buffer":0,"byteLength":5508,"byteOffset":1932,"target":34962},{"buffer":0,"byteLength":5508,"byteOffset":7440,"target":34962},{"buffer":0,"byteLength":3672,"byteOffset":12948,"target":34962},{"buffer":0,"byteLength":1380,"byteOffset":16620,"target":34963},{"buffer":0,"byteLength":3900,"byteOffset":18000,"target":34962},{"buffer":0,"byteLength":3900,"byteOffset":21900,"target":34962},{"buffer":0,"byteLength":2600,"byteOffset":25800,"target":34962},{"buffer":0,"byteLength":1380,"byteOffset":28400,"target":34963},{"buffer":0,"byteLength":3876,"byteOffset":29780,"target":34962},{"buffer":0,"byteLength":3876,"byteOffset":33656,"target":34962},{"buffer":0,"byteLength":2584,"byteOffset":37532,"target":34962}],"buffers":[{"byteLength":40116,"uri":"Crystals Finals.bin"}],"images":[{"name":"Crystals_BaseColor","uri":"Crystals_BaseColor.png"}],"materials":[{"alphaMode":"OPAQUE","doubleSided":false,"extras":{"fromFBX":{"isTruePBR":false,"shadingModel":"Phong"}},"name":"Crystals","pbrMetallicRoughness":{"baseColorFactor":[1,1,1,1],"baseColorTexture":{"index":0,"texCoord":0},"metallicFactor":0.400000005960464,"roughnessFactor":0.272165536880493}}],"meshes":[{"name":"Crystal.001","primitives":[{"attributes":{"NORMAL":2,"POSITION":1,"TEXCOORD_0":3},"indices":0,"material":0,"mode":4}]},{"name":"Crystal.002","primitives":[{"attributes":{"NORMAL":6,"POSITION":5,"TEXCOORD_0":7},"indices":4,"material":0,"mode":4}]},{"name":"Crystal","primitives":[{"attributes":{"NORMAL":10,"POSITION":9,"TEXCOORD_0":11},"indices":8,"material":0,"mode":4}]}],"nodes":[{"mesh":0,"name":"Crystal.001","rotation":[-0.70710682868957,0,0,0.707106709480286],"scale":[100,100,100],"translation":[5.41279029846191,0.617043852806091,-0.20012326538563]},{"mesh":1,"name":"Crystal.002","rotation":[-0.70710682868957,0,0,0.707106709480286],"scale":[100,100,100],"translation":[5.4042444229126,0.509939312934875,-2.22987508773804]},{"mesh":2,"name":"Crystal","rotation":[-0.70710682868957,0,0,0.707106709480286],"scale":[100,100,100],"translation":[5.39598417282104,0.502692103385925,1.97790968418121]}],"samplers":[{}],"scene":0,"scenes":[{"name":"Root Scene","nodes":[0,1,2]}],"textures":[{"name":"base_color_texture","sampler":0,"source":0}]}