{
  "asset": {
    "generator": "Khronos glTF Blender I/O v1.6.16",
    "version": "2.0"
  },
  "scene": 0,
  "scenes": [
    {
      "name": "Scene",
      "nodes": [
        0
      ]
    }
  ],
  "nodes": [
    {
      "mesh": 0,
      "name": "sphere_gltf"
    }
  ],
  "materials": [
    {
      "doubleSided": true,
      "name": "snow_02",
      "normalTexture": {
        "index": 0
      },
      "pbrMetallicRoughness": {
        "baseColorTexture": {
          "index": 1
        },
        "metallicFactor": 0,
        "metallicRoughnessTexture": {
          "index": 2
        }
      }
    }
  ],
  "meshes": [
    {
      "name": "Sphere.001",
      "primitives": [
        {
          "attributes": {
            "POSITION": 0,
            "NORMAL": 1,
            "TEXCOORD_0": 2
          },
          "indices": 3,
          "material": 0
        }
      ]
    }
  ],
  "textures": [
    {
      "sampler": 0,
      "source": 0
    },
    {
      "sampler": 0,
      "source": 1
    },
    {
      "sampler": 0,
      "source": 2
    }
  ],
  "images": [
    {
      "mimeType": "image/jpeg",
      "name": "snow_02_nor_gl_4k",
      "uri": "textures/snow_02_nor_gl_8k.jpg"
    },
    {
      "mimeType": "image/jpeg",
      "name": "snow_02_diff_4k",
      "uri": "textures/snow_02_diff_8k.jpg"
    },
    {
      "mimeType": "image/jpeg",
      "name": "snow_02_rough_4k",
      "uri": "textures/snow_02_rough_8k.jpg"
    }
  ],
  "accessors": [
    {
      "bufferView": 0,
      "componentType": 5126,
      "count": 53927,
      "max": [
        1.003269076347351,
        1.026350736618042,
        1.0191843509674072
      ],
      "min": [
        -1.0032689571380615,
        -1.0240203142166138,
        -1.0191991329193115
      ],
      "type": "VEC3"
    },
    {
      "bufferView": 1,
      "componentType": 5126,
      "count": 53927,
      "type": "VEC3"
    },
    {
      "bufferView": 2,
      "componentType": 5126,
      "count": 53927,
      "type": "VEC2"
    },
    {
      "bufferView": 3,
      "componentType": 5123,
      "count": 322170,
      "type": "SCALAR"
    }
  ],
  "bufferViews": [
    {
      "buffer": 0,
      "byteLength": 647124,
      "byteOffset": 0
    },
    {
      "buffer": 0,
      "byteLength": 647124,
      "byteOffset": 647124
    },
    {
      "buffer": 0,
      "byteLength": 431416,
      "byteOffset": 1294248
    },
    {
      "buffer": 0,
      "byteLength": 644340,
      "byteOffset": 1725664
    }
  ],
  "samplers": [
    {
      "magFilter": 9729,
      "minFilter": 9987
    }
  ],
  "buffers": [
    {
      "byteLength": 2370004,
      "uri": "snow_02.bin"
    }
  ]
}